<?xml version="1.0" encoding="utf-8"?>
<!-- Generator: Adobe Illustrator 15.0.0, SVG Export Plug-In . SVG Version: 6.00 Build 0)  -->
<!DOCTYPE svg PUBLIC "-//W3C//DTD SVG 1.1//EN" "http://www.w3.org/Graphics/SVG/1.1/DTD/svg11.dtd">
<svg version="1.1" id="Layer_1" xmlns="http://www.w3.org/2000/svg" xmlns:xlink="http://www.w3.org/1999/xlink" x="0px" y="0px"
	 width="50px" height="30px" viewBox="0 0 50 30" enable-background="new 0 0 50 30" xml:space="preserve">
<path fill-rule="evenodd" clip-rule="evenodd" fill="#636363" d="M18.089,23.827c-2.593,0.051-3.981,0.533-5.855,0.49
	C-0.184,24.024-0.819,6.83,10.04,5.047c2.84-0.465,5.212,1.035,7.804,0.245c1.305-0.398,1.597-2.747,3.172-3.416
	c2.153-0.913,7.927-0.879,10.002,0c1.573,0.668,1.175,2.119,2.926,3.416C44.191,2.5,52.933,9.885,49.065,18.708
	c-1.358,3.098-5.009,5.422-8.779,5.609c-1.614,0.078-4.151-1.078-6.1-0.49c-1.454,0.443-1.7,2.971-3.414,3.658
	c-2.211,0.893-7.396,0.834-9.513,0C19.624,26.845,19.715,25.317,18.089,23.827z M43.455,7.242
	c-5.672-2.284-10.117,1.817-19.024,1.22c-4.527-0.303-9.444-3.134-15.123-1.463c-6.92,2.035-6.758,12.288-0.976,14.879
	c6.274,2.812,13.459-1.754,20.977-0.975c4.447,0.457,9.171,2.801,13.66,1.217c3.371-1.189,5.562-5.105,4.879-9.024
	C47.295,9.941,45.16,7.929,43.455,7.242z M30.039,3.34c-3.982,0.244-9.635-1.18-10,2.683c3.478,0.828,8.843,1.18,11.952-0.243
	C31.359,4.948,31.009,3.834,30.039,3.34z M20.284,23.095c-0.598,3.729,6.389,3.162,10,2.686c0.773-0.607,1.114-1.652,1.707-2.439
	C28.563,22.169,24.027,22.425,20.284,23.095z"/>
<path fill-rule="evenodd" clip-rule="evenodd" fill="#636363" d="M45.651,13.341c2.279,10.961-13.137,5.367-19.758,5.367
	c-5.034,0-11.46,3.203-16.342,1.461C5.943,18.882,4.212,10.93,9.795,8.95c4.119-1.46,9.782,1.165,13.659,1.463
	c1.469,0.113,3.215,0.12,4.878,0C34.646,9.961,44.049,5.631,45.651,13.341z M21.504,11.39c-2.441-0.379-7.312-2.735-11.464-1.219
	c-3.951,1.441-3.265,7.809,0.242,9.022c5.377,1.863,11.294-2.287,19.271-1.463c3.685,0.381,9.297,2.799,12.685,1.223
	c3.734-1.736,2.874-8.194-0.731-9.026C33.53,9.659,28.854,12.53,21.504,11.39z"/>
</svg>
