<?xml version="1.0" encoding="utf-8"?>
<!-- Generator: Adobe Illustrator 15.0.0, SVG Export Plug-In . SVG Version: 6.00 Build 0)  -->
<!DOCTYPE svg PUBLIC "-//W3C//DTD SVG 1.1//EN" "http://www.w3.org/Graphics/SVG/1.1/DTD/svg11.dtd">
<svg version="1.1" id="Layer_1" xmlns="http://www.w3.org/2000/svg" xmlns:xlink="http://www.w3.org/1999/xlink" x="0px" y="0px"
	 width="65px" height="50px" viewBox="0 0 65 50" enable-background="new 0 0 65 50" xml:space="preserve">
<g>
	<path fill="none" d="M21.783,22.356c0,0.494,0.401,0.896,0.896,0.896c0.494,0,0.895-0.401,0.895-0.896
		c0-0.494-0.401-0.895-0.895-0.895C22.185,21.461,21.783,21.862,21.783,22.356z M23.079,22.183c0,0.115-0.053,0.231-0.213,0.264
		l0.254,0.288v0.011h-0.188l-0.246-0.281h-0.152v0.281h-0.159v-0.843c0.133,0,0.267,0.001,0.4,0.001
		C22.974,21.904,23.079,22.037,23.079,22.183z"/>
	<path fill="none" d="M21.432,26.729c-0.771,0.732-4.208,5.895-1.202,6.212c3.316,0.35,4.289-4.489,4.709-6.813
		C23.977,24.944,22.149,26.046,21.432,26.729z"/>
	<path fill="none" d="M17.728,17.851c-0.69-0.516-1.84-0.908-2.715-1.151C15.627,17.176,16.833,17.475,17.728,17.851z"/>
	<path fill="none" d="M22.92,22.186c0-0.067-0.045-0.135-0.145-0.135h-0.241v0.27h0.241C22.876,22.32,22.92,22.253,22.92,22.186z"/>
	<path fill="none" d="M63.225,25.274c0-0.067-0.044-0.134-0.145-0.134h-0.241v0.269h0.241
		C63.181,25.409,63.225,25.342,63.225,25.274z"/>
	<path fill="none" d="M62.964,24.672c-0.432,0-0.782,0.352-0.782,0.782c0,0.432,0.351,0.782,0.782,0.782s0.781-0.351,0.781-0.782
		C63.745,25.023,63.396,24.672,62.964,24.672z M63.425,25.833h-0.188l-0.245-0.281h-0.152v0.281H62.68v-0.843
		c0.134,0,0.268,0.001,0.4,0.001c0.198,0.002,0.303,0.134,0.303,0.279c0,0.115-0.053,0.232-0.213,0.264l0.255,0.287V25.833z"/>
	<path fill="#CEE5B0" d="M17.825,8.594c-0.331,2.683,2.521,4.5,2.705,6.413c-1.455-0.273-5.859-0.43-5.911,1.001
		c-0.01,0.272,0.143,0.497,0.394,0.692c0.875,0.244,2.025,0.636,2.715,1.151c0.451,0.19,0.823,0.399,0.999,0.662
		c-0.133,0.06-0.292,0.019-0.469-0.062c0.052,0.117,0.077,0.238,0.068,0.363l-1.303,2.806c0,0,3.708-5.21,5.511-5.611
		c0,0,2.91-5.556-2.77-8.807C18.839,7.054,17.981,7.332,17.825,8.594z"/>
	<path fill="#CEE5B0" d="M14.729,16.623c-0.203-0.215-0.325-0.453-0.311-0.714c0.095-1.721,3.908-1.244,5.812-1.103
		c-0.364-1.967-3.362-3.428-2.605-6.513c0.156-0.638,0.816-1.2,1.636-1.362c-0.232-0.117-0.476-0.231-0.734-0.341
		c0,0-5.611,0.2,1.103,7.715c0,0-8.417-0.702-5.812,2.104C13.817,16.409,14.193,16.482,14.729,16.623z"/>
	<path fill-rule="evenodd" clip-rule="evenodd" fill="#283B89" d="M17.625,8.293c-0.757,3.085,2.241,4.546,2.605,6.513
		c-1.903-0.142-5.717-0.618-5.812,1.103c-0.014,0.262,0.107,0.499,0.311,0.714c0.674,0.714,2.263,1.182,2.896,1.489
		c0.225,0.11,0.439,0.249,0.633,0.339c0.177,0.082,0.336,0.123,0.469,0.062c-0.176-0.263-0.547-0.472-0.999-0.662
		c-0.895-0.376-2.101-0.675-2.715-1.151c-0.251-0.195-0.404-0.419-0.394-0.692c0.052-1.432,4.457-1.274,5.911-1.001
		c-0.184-1.912-3.036-3.729-2.705-6.413c0.156-1.262,1.015-1.54,1.939-1.393c0.88,0.139,1.819,0.663,2.269,1.092
		c1.076,1.028,2.562,3.595,2.504,5.912c-0.067,2.771-2.29,3.298-3.807,4.609c-1.444,1.248-2.326,2.579-2.806,4.508
		c0.817-1.958,1.937-3.51,3.406-4.708c0.994-0.811,2.381-1.446,3.006-2.505C26.211,12.93,22.815,8,20.731,7.091
		c-0.5-0.218-1.011-0.252-1.471-0.16C18.441,7.093,17.781,7.655,17.625,8.293z"/>
	<path fill-rule="evenodd" clip-rule="evenodd" fill="#9FCE68" d="M28.289,18.971c1.49-0.625,2.548-1.491-0.255-2.213
		C29.013,17.563,28.931,18.32,28.289,18.971z"/>
	<path fill-rule="evenodd" clip-rule="evenodd" fill="#9FCE68" d="M27.143,16.609c1.619-0.453,3.48-1.145,4.709-2.104
		c0.734-0.573,2.238-2.465,0.957-3.049c-1.012,0.206-2.659,0.652-4.063,1.546c0,0-2.204,1.402-2.405,1.002
		c0,0-0.602,3.306-4.308,5.21c0,0-3.006,1.804,3.607,0.601c0,0,0.798-0.189,1.694-0.489C28.572,18.555,28.947,17.574,27.143,16.609z
		"/>
	<path fill-rule="evenodd" clip-rule="evenodd" fill="#9FCE68" d="M27.844,16.609c0.034,0.025,0.065,0.05,0.098,0.075
		c0.986-0.265,9.111-2.559,5.814-5.384c0,0-0.367,0.039-0.938,0.155c0.249,0.084,0.496,0.197,0.738,0.345
		C33.474,15.224,30.295,15.553,27.844,16.609z"/>
	<path fill-rule="evenodd" clip-rule="evenodd" fill="#283B89" d="M26.141,10.297c-0.101,0-0.2,0-0.301,0
		c-0.153,0.849-0.506,1.497-0.701,2.304C25.765,12.125,25.76,11.018,26.141,10.297z"/>
	<path fill-rule="evenodd" clip-rule="evenodd" fill="#283B89" d="M25.64,12.802c0.801-0.469,1.447-1.092,2.104-1.704
		C26.856,11.479,26.189,12.081,25.64,12.802z"/>
	<path fill="#283B89" d="M32.184,11.302c0.198,0.029,0.396,0.074,0.591,0.138C32.618,11.374,32.423,11.327,32.184,11.302z"/>
	<path fill="#283B89" d="M32.153,11.299c-0.002,0-0.004,0-0.006,0c0.012,0.001,0.024,0.001,0.037,0.003
		C32.173,11.301,32.163,11.3,32.153,11.299z"/>
	<path fill="#283B89" d="M25.54,13.904c1.635-0.517,4.322-2.814,6.607-2.604C29.713,10.969,27.117,13.049,25.54,13.904z"/>
	<path fill="#283B89" d="M31.853,14.505c-1.229,0.958-3.091,1.651-4.709,2.104c1.804,0.965,1.429,1.946,0.191,2.718
		c-1.714,1.068-5.083,1.733-6.604,1.391c0.169,0.634,0.854,0.448,1.503,0.401c1.871-0.135,4.888-0.965,6.055-2.147
		c0.642-0.65,0.724-1.408-0.255-2.213c-0.029-0.024-0.06-0.049-0.092-0.074c-0.032-0.025-0.063-0.049-0.098-0.075
		c2.451-1.056,5.629-1.385,5.711-4.809c-0.242-0.148-0.489-0.261-0.738-0.345c-0.014-0.004-0.028-0.01-0.043-0.015
		c0.013,0.005,0.023,0.011,0.035,0.017C34.091,12.04,32.587,13.933,31.853,14.505z"/>
	<path fill-rule="evenodd" clip-rule="evenodd" fill="#283B89" d="M41.571,25.627c-0.274-0.494-1.573,0.037-2.004-0.301
		c0.455-1.576,1.184-5.396,3.207-5.009c0.582,0.111,0.42,0.646,1.102,0.802c0.378-0.283,0.552-1.102,0.4-1.603
		c-4.086-0.376-4.993,3.288-6.412,5.912c-0.717,0.118-2.017-0.347-2.005,0.501c0.256,0.48,1.49-0.022,1.904,0.3
		c-0.827,3.448-2.09,6.993-2.705,10.319c1.813,0.12,1.686-1.609,2.104-3.106c0.672-2.397,1.436-5.233,2.205-7.213
		C39.929,25.854,41.595,26.586,41.571,25.627z"/>
	<path fill-rule="evenodd" clip-rule="evenodd" fill="#283B89" d="M11.412,21.218c-3.145-1.275-6.98-0.296-6.813,3.006
		c0.072,1.42,1.287,2.42,2.204,3.506c0.824,0.977,2.215,2.243,2.305,3.307c0.276,3.299-6.329,4.009-6.813,0.501
		c-0.255-0.257-0.486,0.022-0.602,0.201c0,0.399,0,0.802,0,1.202c0.16,0.308,0.15,0.785,0.301,1.102
		c3.521,1.079,9.089,0.081,8.617-3.907c-0.281-2.372-4.183-3.962-4.509-6.212c-0.438-3.017,3.515-3.588,5.009-1.503
		c0.46,0.643,0.256,1.261,0.802,1.804c0.598-0.637,0.188-2.284,0.601-3.106C12.163,20.798,11.806,21.58,11.412,21.218z"/>
	<path fill-rule="evenodd" clip-rule="evenodd" fill="#283B89" d="M15.22,25.326c0.221-0.58,0.422-1.18,0.601-1.803
		c-0.128-0.005-0.139-0.128-0.301-0.101c-0.879,1.058-2.137,1.737-3.306,2.506c0.121,0.345,0.875,0.06,1.102,0.3
		c-0.069,2.233-1.951,4.906-1.102,7.414c1.914,0.793,3.749-0.773,4.509-2.104c-1.025,0.192-1.985,1.777-3.207,0.802
		c0.017-2.189,0.843-4.432,1.603-6.212c0.751-0.184,2.321,0.45,2.305-0.501C17.089,25.126,15.713,25.668,15.22,25.326z"/>
	<path fill-rule="evenodd" clip-rule="evenodd" fill="#283B89" d="M27.243,31.338c-0.9,0.134-0.856,1.214-1.903,1.203
		c-0.571-1.244,0.052-2.741,0.4-4.009c0.371-1.344,0.891-2.687,1.203-3.907c-0.607-0.247-0.717,0.799-1.402,0.802
		c-3.564-1.588-7.535,2.899-7.916,5.911c-0.098,0.78-0.059,1.474,0.2,1.904c1.288,2.14,5.209-0.705,5.812-1.503
		C23.348,35.295,27.162,33.126,27.243,31.338z M20.229,32.941c-3.006-0.317,0.431-5.479,1.202-6.212
		c0.718-0.684,2.545-1.786,3.507-0.602C24.518,28.452,23.545,33.291,20.229,32.941z"/>
	<path fill-rule="evenodd" clip-rule="evenodd" fill="#283B89" d="M34.457,24.925c-1.361-0.315-0.601,1.453-0.601,2.104
		c0,1.34-0.979,2.812-1.403,3.607c-0.637-1.636-2.339-7.732-5.009-4.81c1.589,0.058,2.449,1.65,3.106,3.107
		c0.506,1.121,1.129,2.759,1.002,3.707c-0.125,0.932-1.967,3.069-2.605,3.607c-0.797,0.672-2.235,1.259-3.207,0.2
		c-0.041,0.81,0.45,1.087,0.902,1.402c0.501,0,1.002,0,1.503,0c2.84-1.518,5.088-5.232,6.312-9.218
		C34.698,27.848,35.5,25.167,34.457,24.925z"/>
	<path fill-rule="evenodd" clip-rule="evenodd" fill="#283B89" d="M53.595,25.827c-0.398-0.645-1.179-0.902-1.804-0.901
		c-2.942,0.002-6.135,3.669-5.911,6.613c0.251,3.329,5.856,2.774,7.113,0.401c-2.005,1.539-6.979,1.172-5.311-2.405
		C50.702,29.348,53.6,29.038,53.595,25.827z M49.186,26.529c0.64-0.586,2.745-1.55,3.106-0.301c0.109,0.375-0.172,1.082-0.401,1.402
		c-0.675,0.944-2.718,1.639-4.208,1.402C48.064,28.09,48.332,27.311,49.186,26.529z"/>
	<path fill-rule="evenodd" clip-rule="evenodd" fill="#283B89" d="M61.409,25.827c-0.441-0.683-1.206-0.913-1.903-0.901
		c-2.921,0.049-6.106,3.788-5.812,6.713c0.329,3.26,5.916,2.596,7.114,0.301c-1.259,0.564-3.865,1.628-5.109,0.301
		c-0.508-0.543-0.668-1.681-0.301-2.706C58.467,29.363,61.405,29.062,61.409,25.827z M58.204,25.727
		c1.6-0.508,2.424,0.658,1.502,1.904c-0.691,0.936-2.714,1.643-4.208,1.402C55.904,27.83,56.925,26.134,58.204,25.727z"/>
	<path fill-rule="evenodd" clip-rule="evenodd" fill="#283B89" d="M47.482,25.427c-1.169-1.042-3.163,0.217-3.808,0.601
		c-0.061-0.207,0.162-0.696-0.2-0.601c-0.2,0-0.4,0-0.601,0c-0.721,2.72-1.493,5.388-2.205,8.115
		c0.33,0.205,1.015,0.054,1.503,0.101c1.019-1.895,0.939-7.575,3.207-7.816c0.941-0.1,0.883,0.352,1.502,0.703
		C47.187,26.303,47.659,25.811,47.482,25.427z"/>
	<path fill="#FFFFFF" d="M51.891,27.631c0.229-0.32,0.511-1.027,0.401-1.402c-0.361-1.249-2.467-0.286-3.106,0.301
		c-0.854,0.781-1.121,1.561-1.503,2.504C49.173,29.27,51.216,28.575,51.891,27.631z"/>
	<path fill="#FFFFFF" d="M59.706,27.631c0.922-1.246,0.098-2.412-1.502-1.904c-1.279,0.407-2.3,2.103-2.706,3.306
		C56.992,29.273,59.015,28.566,59.706,27.631z"/>
	<path fill="#283B89" d="M21.689,22.356c0,0.546,0.444,0.99,0.99,0.99c0.545,0,0.99-0.444,0.99-0.99c0-0.545-0.444-0.99-0.99-0.99
		C22.133,21.366,21.689,21.811,21.689,22.356z M23.574,22.356c0,0.494-0.401,0.896-0.895,0.896c-0.494,0-0.896-0.401-0.896-0.896
		c0-0.494,0.401-0.895,0.896-0.895C23.172,21.461,23.574,21.862,23.574,22.356z"/>
	<path fill="#283B89" d="M22.375,22.745h0.159v-0.281h0.152l0.246,0.281h0.188v-0.011l-0.254-0.288
		c0.16-0.032,0.213-0.149,0.213-0.264c0-0.146-0.105-0.278-0.303-0.279c-0.133,0-0.267-0.001-0.4-0.001V22.745z M22.534,22.051
		h0.241c0.1,0,0.145,0.068,0.145,0.135c0,0.067-0.043,0.135-0.145,0.135h-0.241V22.051z"/>
	<path fill="#283B89" d="M62.964,24.59c-0.477,0-0.865,0.388-0.865,0.864s0.389,0.864,0.865,0.864s0.864-0.388,0.864-0.864
		S63.44,24.59,62.964,24.59z M62.964,26.236c-0.432,0-0.782-0.351-0.782-0.782c0-0.431,0.351-0.782,0.782-0.782
		s0.781,0.352,0.781,0.782C63.745,25.886,63.396,26.236,62.964,26.236z"/>
	<path fill="#283B89" d="M63.383,25.271c0-0.145-0.104-0.277-0.303-0.279c-0.133,0-0.267-0.001-0.4-0.001v0.843h0.159v-0.281h0.152
		l0.245,0.281h0.188v-0.012l-0.255-0.287C63.33,25.503,63.383,25.386,63.383,25.271z M62.839,25.409V25.14h0.241
		c0.101,0,0.145,0.067,0.145,0.134c0,0.068-0.044,0.134-0.145,0.134H62.839z"/>
</g>
</svg>
