<?xml version="1.0" encoding="utf-8"?>
<!-- Generator: Adobe Illustrator 15.0.0, SVG Export Plug-In . SVG Version: 6.00 Build 0)  -->
<!DOCTYPE svg PUBLIC "-//W3C//DTD SVG 1.1//EN" "http://www.w3.org/Graphics/SVG/1.1/DTD/svg11.dtd">
<svg version="1.1" id="Layer_1" xmlns="http://www.w3.org/2000/svg" xmlns:xlink="http://www.w3.org/1999/xlink" x="0px" y="0px"
	 width="50px" height="30px" viewBox="0 0 50 30" enable-background="new 0 0 50 30" xml:space="preserve">
<path fill-rule="evenodd" clip-rule="evenodd" fill="#636363" d="M46.751,12.66c0.556,4.083-1.768,8.987-6.24,10.17
	c-6.226,1.647-12.304-1.433-16.413-1.387c-3.077,0.034-9.418,3.054-15.719,1.387C-1.067,20.331,0.354,5.816,10.229,4.8
	c6.252-0.644,9.834,2.224,16.875,1.618C33.8,5.842,37.166,3.783,41.436,5.494C43.894,6.479,46.282,9.217,46.751,12.66z M40.511,6.88
	c-3.724-1.317-7.216,0.624-13.407,1.156c-6.56,0.564-10.963-2.356-16.875-1.618C2.759,7.35,1.154,18.297,7.917,20.981
	c5.54,2.198,11.039-1.156,16.412-1.156c3.388,0,6.736,1.32,9.94,1.618c7.561,0.704,11.89-2.685,10.864-8.784
	C44.631,9.673,42.566,7.608,40.511,6.88z"/>
<path fill-rule="evenodd" clip-rule="evenodd" fill="#636363" d="M43.053,12.891c0.392,2.122-0.613,5.228-2.773,6.241
	c-4.605,2.159-12.075-1.583-18.03-1.155c-5.504,0.394-15.697,4.33-16.644-3.005c-1.362-10.558,13.493-4.489,20.11-4.854
	C31.892,9.775,41.65,5.289,43.053,12.891z M27.334,11.042c-1.92,0.146-4,0.175-6.01,0c-4.3-0.375-8.688-2.853-12.251-1.156
	c-2.98,1.419-3.122,7.098,0.231,8.321c4.697,1.714,8.814-1.405,15.257-1.387c4.022,0.012,6.29,1.244,9.939,1.618
	c5.291,0.542,8.598-1.288,7.397-5.779C40.336,6.821,32.214,10.671,27.334,11.042z"/>
</svg>
