<?xml version="1.0" encoding="utf-8"?>
<!-- Generator: Adobe Illustrator 15.0.0, SVG Export Plug-In . SVG Version: 6.00 Build 0)  -->
<!DOCTYPE svg PUBLIC "-//W3C//DTD SVG 1.1//EN" "http://www.w3.org/Graphics/SVG/1.1/DTD/svg11.dtd">
<svg version="1.1" id="Layer_1" xmlns="http://www.w3.org/2000/svg" xmlns:xlink="http://www.w3.org/1999/xlink" x="0px" y="0px"
	 width="65px" height="50px" viewBox="0 0 65 50" enable-background="new 0 0 65 50" xml:space="preserve">
<g>
	<path fill="#2D9B99" d="M15.593,25.793l-0.939,0.052c-0.322,0.263-0.389,0.708-0.201,1.342c0.351,1.054,1.455,1.718,3.312,2.005
		c-0.068-0.692-0.247-1.31-0.545-1.838C16.734,26.479,16.19,25.958,15.593,25.793z"/>
	<path fill="#2D9B99" d="M1.11,1.913v46.418h62.976V1.913H1.11z M32.993,7.23l0.083,0.066l0.089,0.024l0.015-0.105l-0.081-0.044
		l0.03-0.053c0.051,0.097,0.134,0.164,0.245,0.202c-0.007,0.03,0.022,0.066,0.089,0.111l0.046-0.052l-0.03-0.059
		c-0.045-0.015-0.059-0.044-0.051-0.09l0.066,0.051l0.081,0.053l0.134,0.096l0.015-0.111l-0.082-0.068l0.016-0.022l0.148,0.171
		l0.121,0.069l0.096,0.059l0.015-0.098l-0.081-0.03V7.335l0.081,0.066c0.037,0.045,0.068,0.053,0.104,0.03
		c-0.015,0.045,0.015,0.075,0.084,0.098l0.029-0.044l-0.029-0.069c-0.047-0.006-0.062-0.037-0.054-0.081l0.083,0.066
		c0.023,0.045,0.052,0.053,0.082,0.03l0.117,0.098l0.017-0.098l-0.052-0.03l-0.03-0.066l0.082,0.066
		c0.036,0.045,0.065,0.053,0.1,0.03l0.101,0.098l0.017-0.059l-0.03-0.069h-0.053V7.335L34.7,7.401l0.106-0.022l-0.091-0.127
		l0.022-0.022l0.246,0.201l0.028-0.111l-0.082-0.053l0.023-0.037l0.081,0.066l0.086,0.083l0.081,0.052l-0.017-0.135h-0.038V7.23
		l0.066,0.066l0.1,0.024l0.021-0.105l-0.084-0.067l0.033-0.03l0.244,0.202l0.022-0.105l-0.052-0.029l-0.036-0.068l0.065,0.068
		c0.037,0.044,0.065,0.051,0.105,0.029l0.042-0.097l-0.013-0.016l0.12,0.084l0.096-0.016l-0.015-0.104
		c0,0.006,0.007,0.015,0.029,0.015l0.083,0.09l0.12,0.016l-0.039-0.084l-0.043-0.081l0.066,0.06l0.098,0.021l0.015-0.104
		l0.117,0.068l0.099-0.015l-0.031-0.083c-0.044-0.006-0.061-0.031-0.034-0.052l0.117,0.104l0.147,0.081l0.017-0.104l-0.083-0.045
		V6.917l0.066,0.052c0.029,0.044,0.06,0.053,0.098,0.029c0,0.045,0.038,0.083,0.119,0.104l0.017-0.104l-0.067-0.029L36.76,6.917
		l0.065,0.052c0.033,0.044,0.06,0.053,0.1,0.029l0.116,0.104l0.015-0.104l-0.066-0.029c-0.023-0.006-0.031-0.031-0.015-0.052
		l0.278,0.185l0.021-0.104l-0.066-0.029c-0.023-0.006-0.029-0.031-0.023-0.052l0.069,0.052l0.081,0.053
		c0.045,0.067,0.09,0.09,0.135,0.081l0.013-0.104l-0.079-0.065l0.021-0.016l0.081,0.081l0.068,0.083l0.11,0.021
		c-0.007,0.03,0.012,0.069,0.083,0.113l0.052-0.044l-0.052-0.069c-0.045-0.014-0.062-0.044-0.045-0.081l0.611,0.508V7.401
		l-0.082-0.066c-0.022-0.045-0.06-0.068-0.104-0.068V7.23h0.052l0.217,0.216l0.052,0.083l0.06,0.066
		c-0.022,0.023-0.037,0.015-0.06-0.03l-0.12-0.051c-0.007,0.051,0.017,0.111,0.085,0.162l0.117,0.15l0.099,0.089l0.094,0.06v0.054
		L38.66,7.96l-0.095-0.015c0,0.089,0.059,0.173,0.176,0.247l0.022,0.066h-0.089c-0.022,0.053-0.009,0.113,0.039,0.164l0.136,0.121
		l-0.025,0.014l-0.083-0.081c-0.051-0.009-0.089,0-0.094,0.035l0.027,0.083l0.066,0.081c-0.007,0.025-0.035,0.01-0.081-0.035
		c-0.045-0.054-0.075-0.046-0.095,0.035L38.66,8.76c0,0.066,0.03,0.087,0.081,0.081v0.051L38.66,8.826l-0.095-0.015l0.014,0.096
		l0.068,0.083c-0.099,0.021-0.137,0.066-0.099,0.135l0.084,0.044l-0.018,0.037l-0.05-0.066l-0.099-0.015l-0.035,0.044v0.066h-0.085
		l0.017,0.105l0.052,0.083l-0.082-0.039L38.251,9.34l0.066,0.194l-0.089-0.029l-0.082-0.051l-0.015,0.104l0.066,0.082
		c-0.022,0.007-0.044,0-0.081-0.037l-0.083-0.045l0.067,0.191l-0.084-0.065l-0.102-0.015L37.9,9.765l0.082,0.053l-0.015,0.036
		l-0.082-0.089l-0.104,0.023v0.096l-0.112-0.066h-0.096l0.058,0.095h0.038v0.054l-0.096-0.083l-0.104,0.015v0.083l-0.112-0.083
		l-0.104,0.015c-0.022,0.046,0.006,0.09,0.081,0.135l-0.015,0.015l-0.264-0.179l-0.015,0.098l0.083,0.051l-0.021,0.03l-0.262-0.179
		l-0.017,0.098l0.083,0.066l-0.015,0.015l-0.239-0.179l-0.098-0.119l-0.067,0.053l0.067,0.095h0.041v0.054l-0.321-0.298
		l-0.068-0.051l-0.082-0.06l-0.045-0.09l-0.066-0.083L35.894,9.29l0.013-0.016l0.07,0.081l0.081,0.015
		c0.023-0.096-0.028-0.186-0.164-0.26V9.057c0.046,0,0.076,0.023,0.083,0.068c0.022,0.044,0.053,0.051,0.081,0.029l-0.028-0.149
		l-0.123-0.113l-0.013-0.036l0.013-0.015l0.07,0.065c0.022,0.039,0.053,0.045,0.081,0.03l-0.015-0.111l-0.066-0.104l0.12-0.046
		l-0.016-0.081l0.098,0.016l0.015-0.099l-0.082-0.065l0.015-0.039l0.067,0.083l0.083,0.021l0.034-0.119l-0.082-0.067l0.017-0.015
		l0.05,0.067l0.099,0.015l0.016-0.097l-0.065-0.053V8.192l0.265,0.201V8.297l-0.066-0.104l0.083,0.066
		c0.021,0.045,0.043,0.059,0.081,0.038l0.038-0.119l-0.09-0.068l0.023-0.016l0.247,0.203l0.027-0.119L36.871,8.11l0.022-0.016
		l0.344,0.299l0.051,0.098l0.046,0.066c-0.029-0.007-0.054-0.021-0.061-0.045l-0.103-0.035l0.066,0.199l-0.097-0.065l-0.1,0.015
		c-0.015,0.05,0.006,0.097,0.062,0.118h0.021v0.029l-0.282-0.177L36.76,8.477l-0.054,0.051c-0.007,0.045,0.009,0.075,0.054,0.083
		l0.042,0.065L36.72,8.611l-0.095-0.016l-0.017,0.096c-0.081-0.006-0.119,0.009-0.119,0.052l0.016,0.044l-0.096,0.023
		c-0.022,0.053,0,0.105,0.052,0.15l0.066,0.06h-0.118l0.037,0.133l0.043,0.052l0.382,0.367h0.054c0,0.051,0.027,0.089,0.097,0.111
		l0.034-0.044l-0.034-0.066c-0.047-0.008-0.063-0.039-0.047-0.084l0.166,0.128l0.112,0.066l0.021-0.111l-0.021-0.015l-0.069-0.069
		c-0.02,0.054,0.007,0.084,0.09,0.084h0.083l0.03-0.105h0.016l0.119-0.044l-0.04-0.054l0.121,0.054l0.066,0.03l0.015-0.069
		l-0.069-0.065l-0.041-0.084l0.11,0.024l0.012-0.105l-0.081-0.083l0.017-0.015l0.064,0.083l0.086,0.014l0.037-0.112l-0.097-0.081
		h0.06l0.053,0.06L37.9,8.99l-0.066-0.12l-0.112-0.11l0.03-0.017l0.052,0.067L37.9,8.826l-0.03-0.164l-0.148-0.119l0.03-0.016
		l0.052,0.067L37.9,8.611l-0.179-0.299c0.037-0.008,0.067,0.006,0.082,0.052c0.022,0.039,0.052,0.053,0.097,0.03l-0.053-0.135
		l-0.096-0.134l-0.138-0.15l0.081,0.068c0.049,0.036,0.086,0.036,0.123,0l-0.216-0.232l-0.216-0.216l-0.113-0.081l-0.021,0.104
		l0.104,0.112l-0.119-0.096l-0.097-0.12l-0.119-0.068c-0.032-0.052-0.063-0.052-0.097,0l0.064,0.104h0.032l-0.032,0.044L36.871,7.47
		l-0.165-0.039v0.083l-0.098-0.083h-0.119v0.083c-0.021,0-0.051-0.03-0.096-0.083c-0.021-0.045-0.066-0.045-0.117,0v0.083
		l-0.098-0.083l-0.121,0.015c-0.021,0.044,0.015,0.09,0.104,0.134l-0.036,0.015c-0.068-0.096-0.149-0.164-0.247-0.194l-0.031,0.113
		l0.1,0.036v0.044l-0.122-0.081l-0.096-0.083l-0.066,0.015l0.038,0.083l0.028,0.066l-0.081-0.066h-0.12v0.089l-0.112-0.068h-0.103
		c-0.007,0.054,0.013,0.089,0.067,0.113h0.021L35.381,7.7l-0.26-0.185l-0.017,0.104L35.186,7.7l-0.081-0.065l-0.12,0.015V7.73
		l-0.096-0.082l-0.121,0.015V7.73l-0.111-0.082l-0.087,0.015c-0.034,0.044,0,0.089,0.087,0.132l-0.02,0.015l-0.265-0.192
		L34.336,7.73l-0.181-0.112L34.141,7.73c0.03,0.022,0.062,0.036,0.084,0.036l-0.016,0.044l-0.136-0.135l-0.147-0.027V7.73
		c-0.023-0.009-0.061-0.037-0.105-0.082L33.723,7.58c-0.036-0.065-0.073-0.089-0.11-0.065l-0.021,0.104l0.08,0.081h-0.03
		l-0.245-0.185l-0.052-0.113l-0.067,0.045c-0.022,0.053,0,0.083,0.053,0.083c0.052,0.016,0.066,0.044,0.044,0.089l-0.194-0.188
		l-0.081-0.081l-0.105-0.083V7.23z M35.401,10.033v0.03h-0.035v-0.03H35.401z M35.3,9.914v0.054h-0.049V9.914H35.3z M35.186,9.818
		v0.036h-0.038V9.818H35.186z M34.321,9.169v0.037l-0.016,0.016c-0.021-0.007-0.028-0.031-0.015-0.053H34.321z M32.136,8.312
		c0.028-0.023,0.051,0,0.067,0.067L32.15,8.342h-0.015V8.312z M29.995,8.342H29.98V8.312l0.082,0.052
		c0.023,0.039,0.052,0.053,0.097,0.03l0.022-0.097l-0.067-0.038l-0.037-0.066l0.082,0.066c0.022,0.045,0.06,0.059,0.105,0.038
		l0.015-0.119L30.196,8.11l0.014-0.016l0.121,0.12l0.149,0.083l0.016-0.119l-0.084-0.083l0.277,0.203l0.022-0.119l-0.081-0.083
		l0.081,0.054c0.03,0.044,0.059,0.06,0.081,0.044l0.113,0.104l0.022-0.119l-0.089-0.053V8.094l0.067,0.054
		c0.022,0.044,0.053,0.06,0.082,0.044l0.134,0.104l0.016-0.119c0.059,0.051,0.126,0.096,0.202,0.119l0.097,0.097l0.037-0.097
		c-0.008-0.038-0.045-0.044-0.097-0.038V8.192l0.082,0.066c0.03,0.038,0.06,0.053,0.097,0.053l0.097,0.082l0.037-0.097l0.067,0.015
		c0,0.052,0.037,0.082,0.112,0.082l0.037-0.097l0.276,0.215l0.038-0.051V8.394l0.082,0.053l0.12,0.065l0.097,0.099
		c0.037-0.008,0.037-0.044,0.015-0.099l-0.053-0.035l-0.029-0.069l0.067,0.069c0.037,0.044,0.067,0.059,0.097,0.051l0.066,0.067
		l0.068,0.081l0.096,0.046l0.021-0.106l-0.008-0.007l-0.08-0.014V8.543l0.08,0.066l0.009,0.001l-0.001,0.005l0.128,0.106l0.105,0.05
		c0.045,0.045,0.074,0.045,0.081,0l-0.036-0.065c-0.045-0.007-0.061-0.037-0.045-0.082l0.343,0.281l0.053,0.03l0.015-0.111
		l-0.081-0.054V8.744h0.035l0.179,0.193l0.082,0.068l0.082,0.051c0,0.008,0.038,0.045,0.121,0.098l0.015-0.112
		c-0.023-0.015-0.046-0.03-0.083-0.052V8.961h0.031l0.185,0.193l0.38,0.314L34.47,9.37l-0.052-0.03l-0.03-0.066l0.065,0.066
		l0.069,0.044l0.245,0.284c0.052-0.022,0.098,0,0.121,0.069c0.021,0.065,0.049,0.087,0.096,0.081l0.649,0.647
		c-0.019,0.045,0.004,0.076,0.067,0.099l0.06,0.081l0.201,0.201c0.021,0.023,0.044,0.031,0.067,0.031l0.014,0.054l-0.066-0.054
		l-0.098-0.031c0,0.076,0.061,0.173,0.179,0.299h-0.081l-0.015-0.066l-0.083,0.031c-0.008,0.044,0.009,0.074,0.052,0.088
		l0.031,0.082l0.015,0.014l-0.029-0.014c-0.068-0.016-0.1,0-0.1,0.044v0.068c-0.035,0.006-0.074-0.014-0.118-0.068
		c-0.037-0.044-0.062-0.03-0.066,0.039l0.052,0.066l0.029,0.068c-0.021,0.007-0.052-0.009-0.096-0.053l-0.098-0.016
		c-0.017,0.03,0,0.059,0.043,0.084h0.019v0.066c-0.026,0-0.047-0.015-0.084-0.037l-0.081-0.045l0.064,0.192l-0.096-0.066
		l-0.103,0.021c-0.022,0.039-0.007,0.069,0.036,0.084l0.052,0.059l-0.088-0.059h-0.082v-0.023l-0.196-0.23l-0.216-0.261L34.9,11.28
		c0.047,0.029,0.084,0.029,0.112,0l-0.206-0.299l-0.337-0.336l0.134,0.082c0.037,0.044,0.06,0.039,0.083-0.027
		c-0.05-0.023-0.134-0.119-0.246-0.283l-0.8-0.747l-0.066-0.111h-0.066L33.44,9.454l-0.067,0.036c-0.007,0.025,0,0.045,0.022,0.069
		l-0.172-0.12l-0.261-0.248l-0.097-0.066l-0.022,0.11l-0.192-0.193c-0.046,0.008-0.091-0.015-0.135-0.081
		c-0.038-0.06-0.067-0.06-0.097,0v0.06l-0.202-0.129L32.15,8.811l-0.068,0.03c-0.022,0.045,0.015,0.09,0.097,0.134L32.15,8.99
		l-0.231-0.179l-0.082-0.12L31.77,8.744c-0.022,0.067,0,0.098,0.067,0.098h0.015v0.051c-0.155-0.132-0.253-0.191-0.298-0.17v0.089
		l-0.097-0.089h-0.119v0.089l-0.113-0.089l-0.104,0.021v0.067h-0.082l-0.053-0.089l-0.06,0.021l0.045,0.083l0.037,0.066h-0.067
		l-0.053-0.081l-0.098,0.03l0.098,0.134L30.86,8.99l-0.253-0.179l-0.014,0.096l0.082,0.054l-0.03,0.029l-0.12-0.12
		c-0.053-0.053-0.104-0.066-0.149-0.044v0.081l-0.194-0.185l-0.104-0.081L29.98,8.558l-0.015-0.045
		c0.066,0.009,0.097-0.006,0.097-0.051C30.084,8.408,30.062,8.364,29.995,8.342z M35.202,11.728v0.08l-0.167-0.186l0.086,0.082
		L35.202,11.728z M34.984,11.608l-0.054-0.051l0.023-0.015L34.984,11.608z M27.145,34.443c-0.291,1.077-0.663,1.998-1.126,2.766
		c-0.096,0.189-0.245,0.313-0.446,0.369c-0.552,0.156-0.946,0.103-1.193-0.15l0.216-0.894c0.231-0.324,0.514-0.952,0.858-1.889
		c0.365-1.018,0.522-1.708,0.469-2.059l-0.051-0.38c-0.037-0.145-0.098-0.206-0.187-0.199c-0.44,0.048-1.254,0.656-2.448,1.812
		L21,36.1c-0.484,0.509-0.984,0.807-1.492,0.896c-0.201,0.033-0.35-0.033-0.447-0.197l-0.171-0.363l0.417-1.516l1.737-5.127
		l-1.954,0.163c-0.089,0.797-0.29,1.541-0.597,2.251c-0.499,1.236-1.223,2.334-2.185,3.281c-1.074,1.059-2.104,1.59-3.088,1.59
		c-1.058,0-1.85-0.306-2.364-0.924c-0.38-0.457-0.648-1.152-0.812-2.091l-1.23,1.14c-0.552,0.554-1.052,0.971-1.507,1.246
		c-1.006,0.591-1.796,0.846-2.386,0.773c-0.291-0.026-0.514-0.154-0.679-0.376c-0.164-0.231-0.239-0.493-0.216-0.791
		c0.037-0.388,0.403-1.348,1.111-2.886l1.141-2.426c0.09-0.171,0.328-0.289,0.716-0.359l0.813-0.187l0.365,0.097
		c0.156,0.041,0.224,0.115,0.217,0.239c-0.015,0.145-0.179,0.464-0.484,0.978L7.278,32.52c-0.797,1.588-1.209,2.571-1.23,2.952
		c-0.031,0.293,0.045,0.438,0.23,0.438c0.485,0,1.23-0.49,2.237-1.466c0.954-0.93,1.544-1.685,1.775-2.269
		c0.164-0.429,0.589-0.647,1.276-0.647c0.246,0,0.372,0.311,0.381,0.925l-0.045,1.229c0.03,0.644,0.186,1.227,0.476,1.737
		c0.344,0.621,0.791,0.922,1.343,0.882c0.604-0.041,1.222-0.411,1.857-1.098c0.553-0.596,1.043-1.347,1.477-2.252
		c0.455-1.052,0.694-2.058,0.731-3.033l-0.879-0.095c-1.493-0.231-2.522-0.696-3.088-1.376c-0.285-0.341-0.456-0.743-0.508-1.215
		c-0.058-0.53,0.076-0.963,0.396-1.303c0.506-0.547,1.155-0.837,1.939-0.883c0.768-0.035,1.425,0.195,1.969,0.679
		c0.984,0.872,1.491,2.073,1.513,3.595c0.694,0.039,1.388,0.022,2.081-0.03c0.621-1.991,0.902-3.228,0.835-3.729l-0.201-0.349
		l0.499-0.194l0.708,0.098c0.292,0.118,0.448,0.306,0.485,0.566c0.083,0.574-0.141,1.698-0.684,3.377l1.215-0.269
		c0.275-0.065,0.32-0.016,0.148,0.151l-0.5,0.3l-1.014,0.253L22.32,30.58l-1.505,4.34h0.267c2.395-2.586,4.14-3.945,5.236-4.072
		c0.292-0.035,0.536,0.034,0.746,0.196c0.216,0.181,0.351,0.438,0.396,0.78C27.557,32.475,27.452,33.35,27.145,34.443z
		 M27.295,26.278c0.038,0,0.059,0.021,0.082,0.059h0.097l-0.179-0.229l-0.217-0.263l0.083,0.068h0.104
		c0.007-0.045-0.015-0.083-0.067-0.104c-0.053-0.008-0.067-0.046-0.038-0.098l-0.097-0.068l-0.098-0.098l0.031-0.015l0.052,0.061
		l0.097,0.023c0.008-0.069-0.051-0.16-0.179-0.27v-0.053l0.06,0.022l0.052,0.084h0.067c0.038-0.054,0.016-0.099-0.051-0.121
		l-0.068-0.112l-0.081-0.081c0.052,0.007,0.089,0,0.104-0.039l-0.104-0.164l0.081-0.013l0.022-0.105l-0.083-0.08v-0.017l0.06-0.014
		l0.022-0.105l-0.067-0.045l-0.036-0.067c0.081,0.008,0.111-0.008,0.104-0.052l-0.052-0.113h-0.031v-0.035h0.06l0.022,0.067
		c0.053,0.005,0.09,0,0.097-0.033l-0.067-0.131l-0.112-0.084v-0.036c0.038-0.009,0.068,0.005,0.083,0.05l0.097,0.031l-0.179-0.275
		l0.031-0.023l0.052,0.068l0.097,0.021l0.016-0.088l-0.112-0.126c0.075,0,0.112-0.015,0.112-0.054
		c0.008-0.044-0.016-0.074-0.067-0.096h-0.016v-0.054l0.083,0.054l0.082,0.045c0.016-0.082-0.037-0.178-0.164-0.277l0.016-0.035
		l0.148,0.095l0.023-0.095l-0.067-0.052l-0.023-0.06l0.104,0.045c0.023,0.037,0.044,0.037,0.082,0l-0.134-0.179l-0.053-0.053
		l0.023-0.015l0.067,0.068l0.097,0.015c0.022-0.038,0.015-0.068-0.015-0.099l-0.082-0.119c0.074,0,0.112-0.015,0.112-0.05
		l-0.015-0.061l-0.066-0.053l0.015-0.036l0.067,0.089l0.082,0.015l-0.015-0.12l-0.067-0.098c0.082,0.009,0.113-0.005,0.097-0.05
		c0.023-0.07,0.007-0.096-0.06-0.096h-0.022l0.022-0.054l0.06,0.065l0.104,0.015l-0.015-0.094l-0.089-0.12
		c0.083,0,0.12-0.016,0.12-0.045c0.022-0.045-0.007-0.081-0.082-0.119l0.015-0.03l0.149,0.098l0.016-0.098l-0.045-0.036
		l-0.037-0.068h0.066l0.052,0.068l0.066-0.015l-0.066-0.134l-0.118-0.114l0.014-0.016l0.068,0.06l0.102,0.024l0.016-0.105
		l-0.082-0.044v-0.054l0.082,0.054c0.023,0.03,0.044,0.044,0.082,0.044l-0.014-0.099l-0.067-0.095
		c0.097-0.023,0.134-0.066,0.097-0.135l-0.082-0.065l0.014-0.015l0.068,0.066l0.104,0.014l0.015-0.081l-0.067-0.054l-0.015-0.065
		h0.068l0.03,0.065l0.067-0.015l-0.149-0.214v-0.054l0.083,0.104c0.067,0,0.09-0.015,0.081-0.05c0.023-0.068,0-0.098-0.066-0.098
		h-0.015l0.015-0.053l0.066,0.066l0.098,0.016v-0.095l-0.067-0.105h0.067l0.037,0.066c0.03,0.015,0.053,0.009,0.069-0.015
		l-0.15-0.215V20.46l0.081,0.096c0.069,0,0.09-0.014,0.083-0.051l-0.014-0.069l-0.069-0.06l0.016-0.021l0.164,0.081l0.016-0.081
		l-0.061-0.045l-0.022-0.066h0.066l0.016,0.066l0.088-0.021l-0.036-0.06l-0.052-0.089c0.096-0.01,0.134-0.054,0.104-0.128
		l-0.083-0.066l0.017-0.015l0.066,0.06l0.097,0.021l0.015-0.104l-0.082-0.044v-0.051c0.089,0.051,0.148,0.074,0.186,0.065
		l-0.037-0.081l-0.044-0.083h0.059l0.052,0.068l0.068-0.024l-0.068-0.125l-0.052-0.068l0.12,0.015l0.015-0.095l-0.083-0.066
		l0.015-0.039l0.149,0.105l0.022-0.12l-0.089-0.03v-0.05l0.089,0.066l0.097,0.015l-0.015-0.096l-0.053-0.104h0.068l0.029,0.081
		c0.038,0,0.06-0.006,0.067-0.03l-0.03-0.065l-0.053-0.083c0.098-0.007,0.135-0.052,0.098-0.135l-0.083-0.066l0.022-0.016
		l0.06,0.067l0.105,0.015l0.014-0.096l-0.082-0.054l0.015-0.03l0.053,0.068l0.096,0.016l0.015-0.084l-0.067-0.051l-0.014-0.068
		l0.081,0.053l0.106,0.03l-0.023-0.083l-0.044-0.096h0.068l0.029,0.066c0.037,0,0.06-0.015,0.067-0.036l-0.096-0.179l0.096,0.014
		l0.015-0.111l-0.082-0.068l0.016-0.022l0.066,0.067l0.105,0.023l0.015-0.104l-0.083-0.069l0.016-0.016l0.052,0.068l0.096,0.016
		l0.015-0.113l-0.082-0.037v-0.044l0.082,0.059l0.097,0.022l-0.015-0.104l-0.067-0.082h0.082l0.038,0.066
		c0.037,0,0.06-0.007,0.067-0.031l-0.052-0.081l-0.03-0.089c0.03-0.009,0.066,0.016,0.112,0.066
		c0.044,0.039,0.074,0.023,0.082-0.044l-0.067-0.065l-0.03-0.069h0.097l0.022-0.096h0.015c0.068,0.007,0.09-0.008,0.083-0.051
		l-0.083-0.134l0.014-0.015l0.068,0.067l0.097,0.014l0.015-0.095l-0.097-0.054l0.038-0.03l0.045,0.06l0.104,0.025l0.016-0.106
		l-0.084-0.045v-0.053l0.084,0.053c0.029,0.031,0.06,0.045,0.097,0.045l-0.015-0.112l-0.068-0.081l0.097,0.044l0.082,0.037
		l-0.014-0.105l-0.045-0.096h0.059l0.036,0.066l0.067-0.014l-0.037-0.082l-0.044-0.083l0.112,0.06
		c0.044,0.038,0.075,0.023,0.082-0.045l-0.082-0.119c0.097-0.008,0.135-0.045,0.104-0.11l-0.022-0.024l0.038,0.024
		c0.067,0,0.097-0.016,0.097-0.052l-0.053-0.119h-0.015v-0.03l0.149,0.081l0.016-0.097l-0.083-0.067l0.023-0.036l0.06,0.089
		l0.088,0.014l0.03-0.119l-0.097-0.067l0.029-0.016l0.053,0.068l0.098,0.015l0.014-0.098l-0.083-0.051l0.015-0.045l0.068,0.081
		l0.083,0.015l0.037-0.119l-0.097-0.045v-0.036l0.082,0.052c0.022,0.043,0.052,0.053,0.097,0.03l0.014-0.096l-0.067-0.03
		l-0.015-0.068l0.082,0.043l0.083,0.054c0.037-0.038,0.037-0.075,0-0.12l-0.068-0.083l0.104,0.053l0.082,0.031v-0.098l-0.067-0.097
		h0.067l0.097,0.097l-0.068-0.2h0.068l0.052,0.065c0.037,0,0.06-0.005,0.066-0.027l-0.066-0.151h0.066l0.032,0.067l0.066-0.015
		l-0.029-0.09h-0.037v-0.06h0.066l0.053,0.06c0.028,0,0.051-0.006,0.067-0.03l-0.052-0.081l-0.053-0.084l0.135,0.069
		c0.038,0.029,0.059,0.016,0.066-0.053l-0.082-0.12l0.113,0.068c0.044,0.036,0.074,0.022,0.089-0.044l-0.104-0.104h0.104l0.03,0.051
		l0.067-0.014l-0.038-0.067l-0.044-0.083h0.082l0.053,0.068l0.06-0.038l-0.046-0.081l-0.014-0.083l0.095,0.068
		c0.037,0.035,0.061,0.021,0.067-0.039l-0.08-0.111l0.08-0.015c0.007,0.066,0.045,0.089,0.097,0.082l-0.014-0.104l-0.066-0.096
		c0.066,0,0.104,0.021,0.118,0.066l0.06,0.016l0.024-0.045l-0.083-0.117l0.083-0.017c0.006,0.066,0.044,0.091,0.096,0.082
		l-0.015-0.097l-0.068-0.104l0.113,0.066l0.067,0.015l0.021-0.044l-0.089-0.12h0.089l0.047,0.067c0.036,0,0.058-0.008,0.065-0.03
		l-0.053-0.069l-0.045-0.065h0.098l0.037,0.044l0.06-0.015l-0.029-0.084l-0.052-0.08l0.118,0.066
		c0.046,0.038,0.075,0.014,0.083-0.052l-0.098-0.135l0.127,0.067c0.037,0.039,0.059,0.024,0.068-0.03l-0.083-0.134l0.118,0.068
		l0.082-0.053l-0.096-0.125l0.126,0.06c0.038,0.037,0.06,0.021,0.066-0.03l-0.066-0.054v-0.065h0.066l0.053,0.065l0.068-0.014
		l-0.037-0.081l-0.031-0.066h0.068l0.096,0.081l-0.066-0.194l0.104,0.045l0.082,0.038v-0.104l-0.067-0.083l0.098,0.053h0.083
		l-0.029-0.083l-0.054-0.081l0.099,0.065l0.103-0.021l-0.036-0.083c-0.045-0.006-0.059-0.03-0.045-0.066l0.067,0.051
		c0.022,0.046,0.052,0.054,0.095,0.03l0.017-0.111l-0.082-0.038l0.03-0.045l0.052,0.069l0.1,0.014l0.02-0.098l-0.083-0.05
		l0.017-0.039l0.047,0.067l0.101,0.022l0.017-0.119l-0.083-0.066l0.033-0.016l0.131,0.082l0.039-0.096l-0.091-0.068l0.022-0.013
		l0.046,0.057l0.104,0.024l0.012-0.119l-0.052-0.031v-0.051l0.082,0.082c0.054,0.005,0.082,0,0.082-0.031l-0.042-0.119l0.064,0.053
		l0.112,0.066l0.055-0.051l-0.081-0.097h0.081l0.049,0.044l0.062-0.015l-0.029-0.081h-0.033v-0.069h0.062l0.053,0.069l0.05-0.016
		l-0.015-0.083l-0.035-0.065l0.081,0.03c0.035,0.036,0.058,0.051,0.081,0.051v-0.096l-0.065-0.105l0.103,0.066l0.098-0.015
		l-0.069-0.12H35.58v-0.03l0.068,0.054c0.037,0.035,0.066,0.051,0.096,0.029l0.017-0.119l-0.085-0.03l0.025-0.053l0.06,0.068
		l0.087,0.016l0.031-0.1l-0.083-0.065l0.017-0.016l0.052,0.067l0.098,0.014l0.015-0.109v-0.023l0.038,0.023l0.097,0.059
		c0.034,0.037,0.059,0.021,0.067-0.03l-0.082-0.113h0.082l0.05,0.061l0.048-0.016l-0.031-0.081h-0.017v-0.066h0.048l0.117,0.081
		l-0.016-0.096l-0.051-0.099l0.082,0.046l0.08,0.038l0.038-0.105l-0.081-0.045v-0.039l0.059,0.054
		c0.037,0.044,0.066,0.05,0.104,0.029l0.017-0.113l-0.083-0.036l0.015-0.045l0.068,0.066l0.081,0.014l0.038-0.096l-0.09-0.068
		l0.023-0.02c0.05,0.079,0.105,0.11,0.147,0.088l0.017-0.119c0.035-0.008,0.074,0.016,0.11,0.066
		c0.037,0.044,0.069,0.03,0.089-0.035l-0.066-0.045v-0.068l0.081,0.053c0.033,0.029,0.061,0.036,0.085,0.029v-0.098
		c-0.037-0.037-0.052-0.06-0.052-0.081l0.095,0.06c0.047,0.021,0.075,0.015,0.09-0.028l-0.066-0.1h-0.023l0.023-0.051l0.066,0.066
		l0.083,0.016l0.03-0.097l-0.082-0.066l0.015-0.016l0.05,0.066l0.1,0.015l0.013-0.12l-0.013-0.014l0.134,0.08
		c0.035,0.046,0.06,0.039,0.081-0.028l-0.069-0.052v-0.067h0.069c0,0.046,0.028,0.073,0.098,0.081
		c0.037-0.008,0.045-0.035,0.037-0.081l-0.066-0.053l-0.03-0.045l0.097,0.069c0.044,0.029,0.075,0.016,0.098-0.038L37.848,10.4
		h-0.014l0.014-0.053l0.068,0.068l0.081,0.015l0.037-0.099h0.017c0.051,0,0.09-0.014,0.096-0.051l-0.015-0.068l0.134,0.068
		c0.045,0.037,0.067,0.015,0.067-0.068c-0.067-0.007-0.09-0.036-0.067-0.082l0.098,0.066l0.104-0.015v-0.066h0.082l0.017-0.113
		l-0.084-0.066l0.016-0.024l0.082,0.09l0.118,0.06c0.032,0.038,0.052,0.023,0.066-0.03l-0.089-0.12h0.089
		c0,0.046,0.033,0.076,0.1,0.09l-0.066-0.186l0.095,0.066l0.105-0.03L38.931,9.75h-0.015l0.015-0.042l0.066,0.058l0.081,0.023
		l0.033-0.104l-0.099-0.066l0.029-0.015l0.104,0.081l0.082,0.081l0.067-0.016l-0.039-0.081h-0.028V9.603l0.179,0.081l0.014-0.111
		c-0.075,0-0.104-0.03-0.081-0.084l0.067,0.069l0.014,0.015h0.091l0.029-0.105l-0.098-0.06l0.029-0.024l0.054,0.069l0.097,0.015
		l0.037-0.044L39.637,9.37l0.104,0.039l0.098,0.06V9.37l-0.067-0.096l0.098,0.066l0.104-0.021l-0.066-0.113h-0.038l0.038-0.037
		l0.052,0.066l0.096,0.024l0.016-0.105l0.099,0.052l0.104,0.029l-0.017-0.081l-0.052-0.098l0.097,0.068l0.082-0.015L40.34,8.99
		h-0.039l0.039-0.029l0.043,0.06l0.106,0.021l0.017-0.105l0.107,0.053c0.038,0.044,0.068,0.052,0.107,0.031l-0.039-0.098
		l-0.045-0.082l0.084,0.065c0.021,0.045,0.045,0.054,0.082,0.03l0.013-0.111L40.733,8.76l0.032-0.017
		c0,0.044,0.037,0.074,0.102,0.083l0.081,0.081l0.069-0.015l-0.036-0.081l-0.045-0.089l0.192,0.104l0.023-0.104l-0.09-0.046
		l0.022-0.05l0.148,0.097l0.017-0.111l-0.082-0.067l0.028-0.016l0.253,0.164l-0.021-0.081l-0.045-0.083l0.097,0.067l0.096-0.038
		L41.51,8.461h-0.015l0.015-0.053l0.105,0.083l0.096,0.104l0.067-0.038l-0.052-0.081h-0.016V8.408l0.082,0.053
		c0.037,0.036,0.061,0.051,0.081,0.051l0.023-0.119c-0.023-0.006-0.05-0.03-0.09-0.051l0.04-0.031l0.05,0.067l0.098,0.015
		l0.015-0.097l0.096,0.03l0.104,0.067l0.016-0.097l-0.067-0.038c-0.021-0.006-0.021-0.03-0.015-0.066l0.066,0.066
		c0.029,0.045,0.062,0.059,0.097,0.038l0.018-0.119L42.239,8.11l0.038-0.016l0.096,0.12l0.149,0.083l-0.067-0.203l0.084,0.054
		c0.023,0.044,0.052,0.05,0.083,0.03l0.034-0.098l-0.082-0.066l0.017-0.039c0.076,0.113,0.158,0.164,0.245,0.15l-0.013-0.06
		l-0.029-0.09l0.096,0.068c0.044,0.036,0.074,0.03,0.08-0.015V7.945l0.033,0.015l0.104,0.083l0.065-0.015L43.15,7.945h-0.043V7.878
		l0.095,0.067c0.046,0.039,0.075,0.023,0.098-0.03l-0.082-0.12l0.02-0.029c0.033,0.052,0.115,0.112,0.248,0.179V7.865l-0.052-0.098
		l0.066,0.06c0.025,0.044,0.061,0.06,0.097,0.039l0.023-0.12l-0.081-0.069l0.014-0.012l0.264,0.201l0.02-0.12
		c-0.065-0.007-0.095-0.037-0.088-0.081l0.068,0.051c0.035,0.044,0.064,0.052,0.104,0.03l0.027-0.096l-0.066-0.054V7.551
		l0.256,0.194l0.029-0.096l-0.082-0.054l0.013-0.044l0.099,0.083L44.3,7.73L44.347,7.7l-0.03-0.081l-0.054-0.089l0.119,0.089
		l0.098-0.023l-0.07-0.11h-0.015l0.015-0.039l0.106,0.068l0.081,0.081l0.081,0.054v-0.12l-0.064-0.083l0.081,0.068l0.082,0.015
		l0.038-0.098l-0.067-0.052V7.335l0.244,0.194l0.039-0.098l-0.089-0.052l0.021-0.044c0,0.044,0.028,0.075,0.098,0.081l0.098,0.099
		l0.05-0.03l-0.014-0.083h-0.036V7.335l0.104,0.066l0.08-0.022c0.031-0.052,0-0.098-0.08-0.127l0.015-0.022l0.261,0.201L45.56,7.32
		l-0.082-0.053l0.014-0.037l0.098,0.09l0.099,0.081h0.069l-0.016-0.105h-0.054V7.23l0.088,0.066l0.082,0.024l0.03-0.105
		l-0.065-0.044V7.118l0.244,0.202l0.039-0.105l-0.098-0.044l0.028-0.053c0,0.043,0.03,0.074,0.082,0.082l0.085,0.067l0.079,0.053
		l0.038-0.105l-0.068-0.029l-0.035-0.068l0.087,0.068c0.03,0.044,0.06,0.051,0.099,0.029c0.006,0.066,0.036,0.097,0.081,0.081
		L46.5,7.215l-0.068-0.029V7.118l0.105,0.068l0.098-0.016V7.102l0.117,0.084l0.098-0.016c0.039-0.044,0.006-0.09-0.082-0.135
		l0.017-0.015l0.268,0.194l0.014-0.113l-0.082-0.05l0.016-0.03l0.082,0.06c0.052,0.015,0.089,0.045,0.099,0.09l0.078,0.044
		l0.024-0.113c-0.084-0.014-0.103-0.044-0.084-0.081l0.165,0.127l0.113,0.067l0.021-0.113c-0.082-0.014-0.108-0.044-0.089-0.081
		l0.068,0.045c0.036,0.045,0.065,0.06,0.105,0.036c0.005,0.069,0.045,0.105,0.11,0.113L47.68,7.081h-0.053v-0.06l0.082,0.06
		l0.087,0.021c0.008,0.076,0.046,0.105,0.099,0.084l0.017-0.084l-0.069-0.021v-0.06l0.083,0.06l0.081,0.021l0.039-0.104l0.096,0.068
		l0.104,0.015V6.998c0.029-0.006,0.068,0.015,0.111,0.068c0.023,0.052,0.062,0.06,0.098,0.015V6.998l0.216,0.173l0.104,0.044
		l0.017-0.113l-0.082-0.021v-0.06l0.065,0.045c0.033,0.045,0.059,0.06,0.098,0.052l0.117,0.097l0.018-0.113l-0.083-0.05l0.018-0.03
		l0.11,0.127l0.15,0.104l0.32,0.366l0.111,0.112l-0.111,0.036c-0.017,0.052,0.006,0.089,0.064,0.112h0.017v0.037l-0.069-0.051
		l-0.098-0.039l0.06,0.203L49.414,7.96l-0.097-0.015l-0.016,0.098l0.085,0.051L49.37,8.125l-0.082-0.082L49.201,8.08v0.083
		c-0.033,0-0.069-0.031-0.114-0.083l-0.099,0.015c-0.036,0.044-0.007,0.091,0.086,0.135l-0.023,0.015L48.923,8.11l-0.149-0.03v0.083
		L48.574,7.96l-0.099-0.066l-0.12-0.083L48.29,7.73l-0.065,0.036c-0.01,0.023,0,0.039,0.02,0.06l-0.252-0.208h-0.067l-0.1-0.104
		l-0.029,0.104c0.008,0.03,0.046,0.036,0.099,0.03V7.7L47.61,7.515l-0.028,0.104L47.68,7.7l-0.285-0.185
		C47.389,7.551,47.408,7.61,47.461,7.7c-0.023,0.009-0.046-0.006-0.082-0.051l-0.097-0.03l-0.037-0.089L47.18,7.551
		c-0.023,0.054-0.018,0.089,0.019,0.098h0.047V7.7l-0.099-0.065l-0.095,0.015V7.73c-0.038,0-0.074-0.031-0.12-0.082l-0.098,0.015
		V7.73l-0.118-0.082l-0.097,0.015c-0.023,0.066,0,0.103,0.064,0.103H46.7l-0.017,0.044l-0.266-0.192l0.065,0.192l-0.065-0.066
		L46.32,7.73l-0.104-0.082l0.019,0.096l0.047,0.081l-0.095-0.081l-0.121,0.021c-0.023,0.052,0.017,0.098,0.104,0.127l-0.034,0.021
		L45.888,7.73l-0.03,0.096l0.099,0.089l-0.099-0.066l-0.101,0.016v0.081l-0.116-0.081l-0.104,0.014
		c-0.022,0.046,0.007,0.09,0.088,0.135l-0.02,0.015l-0.264-0.15l0.031,0.082l0.036,0.069L45.342,7.96L45.24,7.945l-0.032,0.098
		l-0.119-0.068c-0.065-0.051-0.098-0.03-0.098,0.068c0.082,0.015,0.114,0.045,0.098,0.082l-0.098-0.06L44.897,8.08v0.083
		c-0.039,0-0.075-0.031-0.121-0.083l-0.099,0.015v0.069h-0.013l-0.104,0.015v0.081l-0.115-0.066h-0.1l0.062,0.119h0.037v0.031
		l-0.1-0.068l-0.1,0.023v0.082c-0.039,0-0.075-0.022-0.11-0.067h-0.104v0.067h-0.085L43.92,8.477
		c-0.039,0.006-0.061-0.009-0.084-0.054l-0.088-0.029l-0.047,0.083L43.8,8.558l-0.084-0.045L43.62,8.477l-0.023,0.118l0.093,0.046
		l-0.023,0.035l-0.262-0.148l0.029,0.083h0.037v0.065h-0.037l-0.068-0.081c-0.065-0.014-0.095-0.008-0.095,0.03
		c0,0.05,0.029,0.097,0.082,0.118h0.013l-0.013,0.029l-0.099-0.081l-0.081,0.031v0.089l-0.104-0.067l-0.1-0.052l0.069,0.201
		L42.97,8.826l-0.094-0.015l-0.04,0.096l-0.18-0.065l0.047,0.096h0.023V8.99l-0.104-0.067c-0.048-0.022-0.077-0.007-0.1,0.038v0.06
		H42.51l-0.082,0.036v0.068c-0.021,0.006-0.068-0.015-0.133-0.068c-0.046-0.036-0.069-0.015-0.069,0.068l0.069,0.081l-0.1-0.066
		l-0.104,0.029v0.066h-0.015c-0.066-0.006-0.089,0-0.081,0.039V9.34c-0.022,0.009-0.066-0.015-0.136-0.066
		c-0.043-0.039-0.066-0.014-0.066,0.066l0.066,0.03v0.054l-0.097-0.069l-0.104,0.03c-0.024,0.069,0,0.104,0.067,0.104h0.021
		l-0.021,0.045l-0.15-0.081l-0.013,0.104l0.08,0.06L41.629,9.64l-0.269-0.15l0.053,0.084l0.036,0.066l-0.105-0.037L41.25,9.558
		l0.066,0.191L41.25,9.684l-0.098-0.015l-0.023,0.096l0.083,0.068l-0.016,0.021l-0.082-0.089c-0.066,0-0.097,0.015-0.097,0.053
		v0.066c-0.021,0.008-0.069-0.015-0.134-0.066c-0.046-0.039-0.068-0.015-0.068,0.066L40.9,9.967h-0.046l-0.069-0.083
		c-0.064-0.006-0.095,0-0.082,0.029c-0.013,0.06,0.008,0.098,0.062,0.12h0.02l-0.02,0.03l-0.062-0.06l-0.104-0.021l-0.012,0.119
		l0.095,0.052l-0.03,0.03c-0.081-0.111-0.173-0.156-0.269-0.15l0.052,0.084l0.055,0.081l-0.106-0.066h-0.097l0.03,0.082l0.038,0.068
		h-0.054l-0.045-0.083c-0.066,0-0.104,0.015-0.104,0.054c-0.008,0.044,0.017,0.073,0.068,0.096h0.035L40.221,10.4l-0.15-0.083
		l-0.016,0.098l0.081,0.066l-0.014,0.015l-0.082-0.081l-0.104,0.05v0.069l-0.11-0.069c-0.046-0.044-0.068-0.02-0.068,0.069
		l0.068,0.081l-0.106-0.065l-0.097,0.013c-0.021,0.046-0.007,0.073,0.037,0.081l0.045,0.066c-0.022,0.009-0.045-0.005-0.082-0.05
		l-0.082-0.03l-0.029,0.052v0.066l0.097,0.03l-0.038,0.051l-0.083-0.081l-0.08,0.03v0.066l-0.15-0.081l-0.043,0.015l0.043,0.097
		l0.039,0.083l-0.082-0.06h-0.103l0.014,0.081l0.052,0.068l-0.18-0.09l-0.023,0.105l0.09,0.045v0.035l-0.066-0.051l-0.105-0.03
		l-0.028,0.045v0.065l0.097,0.038l-0.029,0.045l-0.081-0.083c-0.068-0.006-0.101,0-0.086,0.038v0.066h-0.022l-0.066-0.051
		l-0.096-0.031l-0.014,0.061l0.067,0.05l0.015,0.083l-0.121-0.068c-0.037-0.044-0.06-0.021-0.06,0.068l0.06,0.015v0.067
		l-0.084-0.046l-0.096-0.036l0.017,0.104l0.052,0.082l-0.068-0.051l-0.096-0.03l-0.036,0.045v0.066l0.103,0.036l-0.037,0.045
		l-0.148-0.081l-0.015,0.097l0.081,0.052l-0.014,0.03l-0.083-0.083c-0.067-0.007-0.104,0.008-0.104,0.052v0.051l-0.015,0.016
		c-0.046-0.007-0.066-0.03-0.066-0.051l-0.082-0.044l-0.016,0.059l0.067,0.066l0.015,0.068l-0.082-0.015l-0.052-0.069l-0.071,0.016
		l0.057,0.083h0.015v0.065c-0.022,0-0.045-0.005-0.083-0.03l-0.081-0.051l0.066,0.201l-0.188-0.095l-0.013,0.11l0.079,0.084
		l-0.066-0.045l-0.095-0.039l-0.03,0.098l0.097,0.051l-0.029,0.053l-0.09-0.104c-0.054,0-0.081,0.015-0.081,0.051l0.035,0.099
		l-0.051-0.03c-0.066-0.008-0.097,0.005-0.097,0.052v0.044l-0.066,0.022c-0.053,0.007-0.067,0.045-0.033,0.097
		c-0.034,0.02-0.075,0-0.116-0.052c-0.04-0.03-0.062-0.015-0.083,0.036l0.083,0.114c-0.025,0.006-0.048-0.009-0.083-0.045h-0.098
		l0.03,0.081h0.027v0.067l-0.082-0.053l-0.095-0.05l0.013,0.103l0.054,0.098l-0.083-0.054l-0.081-0.031l0.07,0.195l-0.093-0.06
		l-0.096-0.035l-0.016,0.119l0.082,0.044v0.036l-0.066-0.051l-0.099-0.03l-0.034,0.095l0.102,0.054l-0.034,0.044l-0.084-0.098
		l-0.081,0.054v0.065h-0.017l-0.104,0.045l0.023,0.068l-0.038-0.015c-0.055,0-0.081,0.015-0.081,0.052v0.059h-0.015
		c-0.047,0-0.068-0.014-0.068-0.044l-0.066-0.037l-0.052,0.067l0.064,0.053l0.022,0.066c-0.035,0.023-0.074,0-0.118-0.05
		c-0.037-0.039-0.062-0.024-0.066,0.036l0.052,0.06l0.029,0.065l-0.081-0.014l-0.051-0.066l-0.062,0.015
		c0,0.036,0.015,0.065,0.043,0.09l0.04,0.06c-0.068,0.021-0.1,0.016-0.083-0.03l-0.088-0.03l-0.016,0.081l0.064,0.098
		c-0.036,0.007-0.057-0.009-0.079-0.053h-0.098l0.031,0.083l0.035,0.067c-0.021,0-0.052-0.006-0.088-0.03l-0.082-0.05l0.02,0.104
		l0.049,0.096l-0.086-0.066l-0.093-0.03l0.012,0.096l0.053,0.098l-0.064-0.046l-0.108-0.038l-0.028,0.099l0.097,0.052v0.038
		c-0.022,0.006-0.046-0.008-0.082-0.053L34.9,14.174l-0.012,0.119l0.082,0.052v0.029l-0.07-0.05l-0.094-0.031l-0.039,0.096
		l0.098,0.054l-0.017,0.027l-0.162-0.081l-0.017,0.12l0.083,0.052l-0.015,0.029l-0.149-0.081l-0.02,0.097l0.087,0.052l-0.02,0.03
		l-0.102-0.082l-0.082,0.052v0.067H34.44l-0.104,0.044l0.022,0.069l-0.037-0.016l-0.082,0.05c-0.008,0.024-0.008,0.045,0.015,0.083
		l-0.029-0.015c-0.069-0.014-0.099,0-0.084,0.045v0.066l-0.036-0.015c-0.053,0-0.083,0.015-0.083,0.054
		c-0.007,0.021-0.007,0.044,0.015,0.081l-0.029-0.014c-0.066-0.015-0.09-0.007-0.081,0.03v0.068
		c-0.135-0.009-0.173,0.029-0.121,0.11l0.016,0.024l-0.029-0.024c-0.068-0.006-0.09,0-0.083,0.038v0.067
		c-0.134-0.007-0.171,0.03-0.117,0.111h-0.068c-0.052,0.017-0.066,0.054-0.029,0.104l-0.12,0.045V15.8h-0.06
		c-0.06,0.006-0.073,0.043-0.037,0.105l-0.112,0.044v0.066h-0.066c-0.053,0.008-0.067,0.044-0.039,0.098
		c-0.125-0.009-0.163,0.029-0.11,0.119l0.014,0.015l-0.038-0.015c-0.067-0.008-0.089,0-0.082,0.031v0.065l-0.112,0.054
		c-0.007,0.036,0.023,0.081,0.097,0.132l-0.029,0.017l-0.082-0.083c-0.066-0.006-0.097,0-0.088,0.03v0.066h-0.016l-0.097,0.052
		c-0.022,0.046,0.007,0.082,0.097,0.111l-0.03,0.038l-0.082-0.082c-0.067-0.007-0.097,0-0.083,0.03v0.083l-0.022-0.015l-0.097,0.05
		v0.068h-0.015l-0.082,0.03l0.068,0.12h0.014l-0.014,0.03l-0.091-0.084l-0.097,0.054c-0.022,0.066,0,0.096,0.068,0.096h0.029
		l-0.029,0.053L32,17.097l-0.016,0.098l0.083,0.05l-0.015,0.03l-0.068-0.066l-0.082-0.015l-0.037,0.05v0.06h-0.082l-0.015,0.105
		l0.083,0.045v0.038l-0.067-0.054l-0.097-0.029v0.098l0.067,0.095l-0.082-0.06l-0.104-0.024l0.015,0.105l0.051,0.084l-0.081-0.039
		l-0.082-0.045l0.066,0.194c-0.037,0.016-0.066,0-0.103-0.044h-0.083l0.037,0.083l0.03,0.065c-0.022,0.009-0.045,0-0.082-0.036
		h-0.083l0.029,0.082l0.054,0.068l-0.113-0.03c-0.038-0.045-0.067-0.038-0.088,0.03l0.088,0.134l-0.119-0.068
		c-0.038-0.044-0.06-0.029-0.067,0.038l0.067,0.06l0.015,0.067c-0.074-0.006-0.112,0.008-0.112,0.053
		c-0.015,0.051,0.015,0.096,0.097,0.12l-0.029,0.027l-0.09-0.081l-0.082,0.029l0.038,0.104l-0.053-0.038l-0.098,0.054l0.068,0.096
		h0.029l-0.029,0.053l-0.149-0.083l-0.022,0.098l0.09,0.051l-0.024,0.03l-0.044-0.066l-0.104-0.015l-0.014,0.119
		c0.066,0,0.089,0.03,0.082,0.082l-0.082-0.066l-0.097-0.016l0.014,0.097l0.053,0.083c-0.023,0.007-0.045,0-0.067-0.029
		l-0.084-0.053l-0.021,0.083c0.06,0.036,0.082,0.075,0.068,0.119l-0.083-0.052h-0.097l0.052,0.083l0.045,0.065h-0.097l-0.037-0.065
		l-0.061,0.015l0.044,0.104c0.046,0.007,0.06,0.036,0.038,0.082l-0.105,0.029c-0.022,0.066,0.007,0.111,0.083,0.135l-0.032,0.03
		l-0.081-0.082l-0.082,0.036v0.067h-0.016l-0.089,0.029l0.052,0.12h0.037v0.044l-0.089-0.066l-0.097-0.015l0.015,0.104l0.053,0.082
		l-0.068-0.037c-0.022-0.03-0.044-0.045-0.082-0.045l-0.014,0.095l0.067,0.1l-0.082-0.045h-0.105l0.105,0.165
		c-0.037,0.021-0.077,0-0.12-0.054l-0.083,0.015l0.083,0.12l0.015,0.054L29.6,20.207c-0.068-0.006-0.098,0-0.082,0.038l0.045,0.112
		H29.6l-0.037,0.051l-0.151-0.096l-0.015,0.111l0.083,0.039v0.045l-0.068-0.045l-0.097-0.039l0.069,0.203
		c-0.039,0.006-0.061-0.009-0.083-0.053h-0.105l0.052,0.083l0.053,0.066h-0.105l-0.03-0.066l-0.068,0.015l0.135,0.215l0.031,0.038
		l-0.016,0.016l-0.082-0.084l-0.082,0.03l0.052,0.119h0.03l-0.03,0.054l-0.149-0.104c-0.022,0.089-0.008,0.14,0.045,0.149h0.015
		v0.05l-0.179-0.066l0.051,0.096l0.046,0.105l-0.082-0.022l-0.046-0.059l-0.066,0.015l0.066,0.081
		c0.038,0.024,0.053,0.046,0.031,0.082c-0.134-0.006-0.171,0.03-0.12,0.12l0.089,0.029l-0.022,0.054l-0.148-0.083l-0.015,0.098
		l0.052,0.029l0.03,0.067l-0.082-0.046l-0.097-0.05l0.097,0.201l-0.113-0.037l-0.088,0.037l0.088,0.083l0.016,0.066l-0.037-0.021
		c-0.066-0.009-0.089,0-0.083,0.036l0.053,0.113h0.029v0.036l-0.083-0.051c-0.022-0.039-0.052-0.045-0.097-0.03l0.016,0.097
		l0.052,0.098l-0.081-0.044h-0.083l0.06,0.125l0.105,0.12l-0.015,0.016l-0.09-0.084L28.22,22.4l0.052,0.111h0.029v0.038
		c-0.022,0.006-0.045-0.009-0.082-0.054l-0.098-0.036l0.016,0.104l0.052,0.095c-0.008,0.025-0.037,0.017-0.082-0.028
		c-0.037-0.052-0.06-0.044-0.082,0.028l0.082,0.084l0.014,0.066l-0.029-0.015l-0.082,0.03l0.044,0.119h0.037v0.029l-0.202-0.044
		l0.12,0.165l-0.12,0.135l0.083,0.031v0.049l-0.067-0.065l-0.097-0.015l0.082,0.178c-0.098,0.021-0.134,0.066-0.098,0.136
		l0.083,0.05v0.03l-0.083-0.051c-0.021-0.029-0.058-0.038-0.102-0.029l0.102,0.2c-0.11,0.009-0.155,0.053-0.118,0.128l0.082,0.036
		v0.044l-0.066-0.059l-0.097-0.021c-0.007,0.065,0.044,0.164,0.163,0.283l-0.015,0.015l-0.083-0.082L27.578,24.1l0.016,0.089
		l0.066,0.081h-0.066l-0.016-0.051l-0.104,0.016l0.066,0.08l0.054,0.119l-0.12-0.036l0.038,0.104l0.066,0.113l0.082,0.067
		l-0.037,0.014l-0.045-0.059l-0.104-0.022l0.038,0.133c0.037-0.021,0.059,0,0.066,0.067l0.082,0.083l-0.037,0.014
		c-0.037-0.074-0.09-0.104-0.149-0.08l0.053,0.134l0.077,0.126l0.013,0.008h0.043v0.03l-0.043-0.03h-0.007l-0.006-0.008
		l-0.009-0.007l-0.12-0.039c-0.006,0.069,0.053,0.16,0.186,0.27v0.03l-0.082-0.053c-0.021-0.036-0.06-0.052-0.104-0.029l0.053,0.136
		l0.23,0.282h-0.015l-0.051-0.066l-0.097-0.023l0.066,0.148l0.133,0.149l0.15,0.12c0.045,0.054,0.075,0.04,0.098-0.051l-0.015-0.028
		c0.03,0,0.06,0.021,0.082,0.066l0.082,0.067l0.097,0.096c0.052,0.023,0.075,0.052,0.052,0.098c0.067,0,0.09,0.022,0.067,0.066
		c-0.089-0.053-0.15-0.075-0.187-0.066l0.067,0.102c0.045,0.009,0.06,0.046,0.039,0.1l0.081,0.03l-0.015,0.051l-0.15-0.081
		l0.06,0.179l-0.082-0.029h-0.098l0.031,0.079h0.037v0.07l-0.082-0.07l-0.097,0.017l0.044,0.12h0.037l-0.037,0.03l-0.313-0.3
		c-0.044,0-0.067,0.017-0.067,0.054l0.037,0.079l0.044,0.07L27.295,26.278z M36.394,14.076h-0.083
		c-0.007,0.069,0.047,0.158,0.165,0.285l-0.015,0.014l-0.083-0.081c-0.067-0.008-0.102,0.007-0.102,0.052
		c-0.025,0.044,0,0.067,0.051,0.067l0.051,0.058c-0.034,0.018-0.061,0.009-0.083-0.027h-0.102l0.066,0.134l0.118,0.096l-0.034,0.015
		l-0.084-0.082l-0.081,0.052c-0.023,0.051,0,0.089,0.066,0.111h0.015v0.039l-0.202-0.068l0.121,0.164
		c-0.098,0.024-0.143,0.067-0.121,0.134l0.104,0.054l-0.036,0.03l-0.045-0.068l-0.104-0.015l0.022,0.098l0.044,0.105l-0.096-0.069
		l-0.068,0.016c-0.008,0.043,0.009,0.074,0.052,0.098l0.031,0.081l0.015,0.024l-0.029-0.024l-0.1,0.038l0.059,0.113h0.041v0.038
		l-0.083-0.054l-0.104-0.03l0.022,0.096l0.042,0.098c-0.006,0.022-0.035,0.016-0.081-0.028c-0.029-0.054-0.059-0.046-0.081,0.028
		l0.081,0.105l0.017,0.045L35.729,15.8c-0.066-0.009-0.096,0-0.096,0.037l0.067,0.112h0.028l-0.028,0.036l-0.053-0.066l-0.098-0.015
		c-0.022,0.03-0.022,0.059,0.015,0.096l0.047,0.098l-0.062-0.031l-0.088-0.052l-0.016,0.083l0.081,0.104h-0.081l-0.046-0.053
		l-0.066,0.015l0.112,0.202l-0.046-0.038l-0.088,0.054v0.081l-0.082-0.015c-0.029,0.074-0.018,0.128,0.053,0.148H35.3v0.03
		l-0.086-0.043l-0.093-0.039l0.012,0.104l0.053,0.098c-0.023,0.007-0.053-0.007-0.081-0.052h-0.092l0.054,0.104l0.038,0.083
		l-0.105-0.068L34.9,16.828l0.084,0.119l0.015,0.046l-0.028-0.016l-0.082,0.054v0.066h-0.082l-0.039,0.098l0.098,0.05v0.03
		c-0.023,0.008-0.046-0.006-0.081-0.052l-0.098-0.029l0.014,0.096l0.053,0.104l-0.083-0.051l-0.081-0.039l0.015,0.105l0.053,0.083
		c-0.02,0.007-0.053,0-0.087-0.038h-0.1l0.053,0.089l0.047,0.06h-0.1l-0.029-0.06l-0.068,0.015l0.046,0.082l0.035,0.098
		l-0.117,0.036v0.068l-0.066,0.016c-0.053,0.006-0.067,0.045-0.03,0.096l0.082,0.053l-0.016,0.03l-0.081-0.083l-0.084,0.039
		c-0.015,0.05,0.008,0.089,0.068,0.11h0.016l-0.016,0.038l-0.104-0.089c-0.053,0-0.083,0.016-0.083,0.051
		c-0.022,0.068,0,0.098,0.067,0.098h0.016l-0.016,0.053l-0.148-0.082l-0.015,0.097l0.081,0.053l-0.015,0.03l-0.066-0.061
		l-0.105-0.023l-0.016,0.12h-0.082l0.016,0.095l0.053,0.084l-0.068-0.046l-0.11-0.038l0.014,0.105l0.045,0.098
		c-0.021,0-0.045-0.015-0.08-0.053l-0.083-0.03l0.015,0.098l0.052,0.081c-0.022,0-0.043-0.006-0.081-0.03l-0.098-0.051l0.015,0.096
		l0.052,0.104l-0.066-0.036l-0.082-0.045l-0.021,0.097l0.066,0.083l-0.082-0.029h-0.098l0.032,0.081l0.036,0.067
		c-0.023,0.007-0.053-0.008-0.083-0.052h-0.089l0.038,0.083l0.029,0.065c-0.023,0.009-0.045-0.005-0.084-0.05h-0.096l0.053,0.104
		h0.029v0.066c-0.037,0.009-0.067-0.006-0.096-0.05h-0.083l0.03,0.081l0.029,0.066c-0.021,0.008-0.044-0.005-0.082-0.051h-0.096
		c-0.009,0.046,0,0.075,0.029,0.083l0.052,0.082c-0.037,0.014-0.067,0-0.097-0.046h-0.08l0.028,0.082l0.038,0.069l-0.088-0.054
		h-0.098l0.038,0.083l0.044,0.081c-0.03,0-0.06-0.014-0.097-0.044l-0.082-0.036l0.015,0.104l0.052,0.082l-0.083-0.037l-0.104-0.045
		l0.082,0.195h-0.044l-0.068-0.1c-0.082-0.021-0.105,0.016-0.082,0.114c0.074,0.016,0.104,0.045,0.082,0.09l-0.067-0.053
		l-0.12-0.037l-0.015,0.105l0.097,0.044v0.051l-0.082-0.065L32,20.097l-0.016,0.11l0.083,0.038l-0.015,0.045l-0.068-0.06
		l-0.082-0.023l-0.037,0.104l0.104,0.045l-0.038,0.051l-0.082-0.096l-0.083,0.045l0.029,0.104l-0.044-0.039l-0.104,0.039
		l0.021,0.082l-0.038-0.016l-0.081,0.045v0.068c-0.037,0.006-0.067-0.009-0.097-0.054l-0.104-0.06
		c0.022-0.037,0.015-0.066-0.03-0.09l-0.053-0.081l0.083,0.051l0.083,0.03c0.037-0.021,0.037-0.051,0-0.096l-0.061-0.097h0.061
		l0.037,0.066l0.082,0.03l-0.016-0.097l-0.052-0.104h0.067l0.029,0.066l0.068-0.015l-0.03-0.095h-0.038v-0.069h0.068l0.051,0.069
		c0.037,0.005,0.059,0.005,0.067-0.016l-0.052-0.09l-0.029-0.083l0.111,0.069c0.038,0.036,0.06,0.021,0.068-0.045l-0.082-0.119
		l0.134-0.054l-0.052-0.081l0.118,0.015L32,19.58h0.016c0.066,0,0.097-0.015,0.081-0.036v-0.06h0.105l0.015-0.12l-0.082-0.065
		l0.015-0.015l0.149,0.081c0.038-0.006,0.038-0.045,0.015-0.096l-0.082-0.069l0.038-0.035l0.148,0.104l0.015-0.119l-0.082-0.031
		l0.015-0.052l0.067,0.067l0.082,0.015c0.037-0.009,0.037-0.044,0.015-0.098l-0.082-0.052V18.97l0.097,0.044l0.105,0.021
		l-0.039-0.104l-0.044-0.082l0.083,0.052c0.028,0.03,0.059,0.038,0.08,0.03l-0.067-0.18h0.067l0.045,0.068
		c0.038,0,0.059-0.014,0.067-0.038l-0.044-0.081l-0.051-0.083l0.133,0.068l0.068-0.053c-0.038,0-0.059-0.03-0.068-0.096
		l-0.015-0.039h0.083l0.014-0.096h0.03c0.052,0,0.083-0.014,0.083-0.05c0.038-0.054,0.007-0.098-0.083-0.128l0.023-0.022l0.148,0.09
		l0.015-0.104l-0.081-0.046l0.03-0.038l0.051,0.068l0.098,0.016l0.016-0.113l-0.081-0.037v-0.044l0.081,0.044l0.081,0.037V17.97
		l-0.06-0.082h0.06l0.054,0.066l0.066-0.031l-0.053-0.081l-0.045-0.089l0.127,0.066l0.068-0.044c-0.031,0-0.054-0.03-0.068-0.081
		l-0.082-0.09v-0.045l0.082,0.082c0.068,0.009,0.097,0,0.09-0.037v-0.083l0.096,0.024l0.015-0.12l-0.082-0.03l0.016-0.051
		l0.066,0.067l0.082,0.014l0.016-0.081l-0.044-0.053l-0.038-0.045l0.104,0.045c0.022,0.023,0.046,0.039,0.083,0.039l-0.037-0.106
		l-0.068-0.112l0.135,0.067l0.066-0.053l-0.066-0.082v-0.014l0.066-0.024l0.015-0.11l-0.081-0.068l0.037-0.016l0.044,0.068
		l0.104,0.015l0.015-0.098l-0.082-0.052v-0.052l0.082,0.052c0.037,0.037,0.062,0.052,0.084,0.052l-0.068-0.201h0.068l0.052,0.067
		l0.045-0.037l-0.127-0.214v-0.03l0.082,0.081c0.053,0.007,0.081-0.006,0.081-0.05l-0.014-0.06c-0.037-0.016-0.061-0.03-0.067-0.053
		l0.015-0.036l0.147,0.103l0.017-0.103l-0.052-0.031l-0.03-0.068l0.097,0.054l0.085-0.016l-0.047-0.067l-0.053-0.081l0.119-0.119
		l-0.083-0.069l0.017-0.029l0.147,0.098l0.017-0.098l-0.05-0.037l-0.033-0.068h0.066l0.017,0.068c0.052,0.006,0.081,0,0.081-0.03
		l-0.029-0.068l-0.052-0.082c0.11-0.009,0.147-0.053,0.12-0.119l-0.091-0.069l0.022-0.028l0.15,0.097v-0.11l-0.069-0.084h0.069
		l0.042,0.06l0.054-0.03l-0.054-0.081c-0.03-0.009-0.036-0.039-0.03-0.084l-0.081-0.065l0.029-0.015l0.052,0.067l0.084,0.014
		l0.028-0.104l-0.059-0.03c-0.023-0.006-0.03-0.03-0.023-0.051h0.054l0.051,0.051l0.069-0.014l-0.15-0.215V14.77
		c0.053,0.069,0.104,0.098,0.15,0.089l0.017-0.119l-0.086-0.052v-0.03l0.086,0.067c0.041,0.029,0.081,0.029,0.11,0l-0.029-0.104
		c-0.046-0.007-0.061-0.03-0.055-0.06l0.104,0.06c0.04,0.022,0.068,0.014,0.084-0.03l-0.051-0.12h-0.033l0.033-0.027l0.051,0.065
		l0.081,0.015l0.031-0.097l-0.081-0.053l0.015-0.029l0.052,0.067l0.096,0.015l0.022-0.119l-0.088-0.068l0.02-0.015l0.068,0.067
		l0.083,0.015l0.029-0.098l-0.083-0.066l0.014-0.015l0.082,0.081c0.068,0,0.098-0.016,0.085-0.051l-0.017-0.084l0.12,0.054
		c0.023,0.051,0.053,0.065,0.098,0.03l-0.031-0.069l-0.052-0.081h0.083l0.053,0.066l0.043-0.014l-0.028-0.096h-0.015v-0.054h0.043
		l0.121,0.084l-0.017-0.099l-0.051-0.105l0.097,0.069l0.103-0.016l-0.034-0.082l-0.048-0.067l0.066,0.051
		c0.022,0.044,0.054,0.054,0.099,0.03l0.03,0.084l0.065,0.081C36.394,13.957,36.357,14.001,36.394,14.076z M35.401,16.479
		l-0.021,0.053l-0.031-0.053h0.031H35.401z M31.27,20.759l0.053,0.082l-0.082-0.066l-0.104-0.054
		c0.021-0.066,0.007-0.097-0.06-0.097h-0.023v-0.053l0.083,0.068l0.088,0.015l0.03-0.098l-0.097-0.096l0.097,0.066l0.097,0.016
		c-0.03,0.029-0.022,0.067,0.022,0.112h0.045l0.016,0.066c-0.031,0.008-0.068-0.015-0.113-0.066l-0.098,0.015
		C31.204,20.715,31.218,20.745,31.27,20.759z M31.204,20.885l-0.016,0.054l-0.246-0.232l0.03-0.037L31.204,20.885z M36.461,13.71
		l-0.134-0.109l0.017-0.024l0.254,0.239l-0.041,0.03L36.461,13.71z M31.137,31.433c0,0.63-0.18,1.362-0.544,2.182l-1.157,2.441
		c-0.044,0.099-0.066,0.328-0.066,0.692l0.163,0.461l0.365,0.313c0.21,0.085,0.307,0.203,0.284,0.37
		c-0.022,0.106-0.194,0.162-0.499,0.162c-0.456,0-0.873-0.173-1.261-0.507c-0.388-0.368-0.56-0.764-0.514-1.18
		c0.089-0.71,0.269-1.373,0.529-1.99l0.879-2.09l0.314-1.625L29.6,30.238L29.615,30c0.038-0.077,0.275-0.115,0.716-0.115
		c0.47,0,0.768,0.16,0.895,0.463l-0.021,0.534L31.137,31.433z M34.388,36.799c-0.888,0.484-1.64,0.724-2.268,0.724
		c-0.595,0-0.895-0.198-0.895-0.594l0.082-0.219l0.032-0.014l0.364,0.134c0.351,0,0.843-0.139,1.476-0.414
		c0.762-0.336,1.143-0.711,1.143-1.107c0-0.356-0.24-0.819-0.709-1.378c-0.484-0.562-0.732-1.028-0.732-1.396
		c0-0.827,0.5-1.579,1.492-2.268c0.904-0.635,1.79-0.947,2.649-0.947c0.723,0,1.088,0.196,1.096,0.584L37.9,30.136l-0.826-0.084
		c-0.547,0-1.12,0.241-1.739,0.718c-0.648,0.5-0.977,0.999-0.977,1.505c0,0.438,0.253,0.948,0.763,1.507
		c0.494,0.558,0.743,1.009,0.743,1.325C35.864,35.684,35.373,36.243,34.388,36.799z M43.341,34.96
		c-0.655,0.512-1.354,0.977-2.091,1.371c-0.644,0.342-1.075,0.522-1.291,0.528h-0.403c-0.029-0.029-0.044-0.133-0.044-0.312
		c0.008-0.089,0.314-0.393,0.908-0.924l1.927-1.709c1.842-1.701,2.707-2.908,2.579-3.627c-0.028-0.177-0.126-0.328-0.283-0.451
		c-0.127-0.096-0.291-0.144-0.494-0.135c-0.506,0.039-1.155,0.37-1.953,1.017c-0.782,0.616-1.445,1.307-1.975,2.084l-0.598,1.043
		c-0.894,1.833-1.551,3.466-1.969,4.909c-0.381,1.271-0.522,2.172-0.433,2.717c0.037,0.222,0.112,0.349,0.231,0.382
		c0.178,0.089,0.274,0.163,0.284,0.229l-0.083,0.133l-0.201,0.1c-0.246,0-0.456-0.156-0.628-0.461
		c-0.157-0.277-0.254-0.62-0.298-1.031c-0.134-1.202,0.209-3.027,1.021-5.48l2.075-5.9c0.135-0.44,0.148-0.747,0.052-0.91
		l-0.066-0.148l0.066-0.084c0.308,0,0.581,0.174,0.814,0.516c0.124,0.187,0.209,0.389,0.244,0.61
		c0.099,0.56-0.013,1.218-0.351,1.957l-0.028,0.131l0.054,0.045l0.179-0.146c1.272-1.492,2.438-2.277,3.497-2.352
		c0.483-0.036,0.857,0.121,1.11,0.463c0.304,0.435,0.493,0.843,0.547,1.223C45.984,32.096,45.182,33.506,43.341,34.96z
		 M50.889,35.966c-1.355,0.921-2.504,1.381-3.441,1.381c-0.895,0-1.476-0.474-1.739-1.41l-0.083-0.518
		c0-1.168,0.777-2.585,2.334-4.258c0.621-0.662,1.231-1.213,1.836-1.667c0.617-0.442,1.075-0.664,1.365-0.664
		c0.379,0,0.738,0.237,1.059,0.705c0.307,0.457,0.466,0.904,0.466,1.358l-0.056,0.388c-0.156,0.531-0.604,1.037-1.341,1.521
		c-0.664,0.443-1.379,0.764-2.149,0.95c-0.141,0.041-0.216,0.007-0.216-0.122c0-0.134,0.075-0.241,0.231-0.329
		c1.127-0.706,1.9-1.287,2.332-1.744c0.347-0.372,0.517-0.695,0.517-0.959c0-0.243-0.117-0.359-0.35-0.359
		c-0.175,0-0.405,0.084-0.693,0.247c-0.962,0.545-1.813,1.245-2.552,2.116c-0.866,1.028-1.401,2.087-1.61,3.185
		c-0.098,0.545,0.098,0.812,0.597,0.812c0.663,0,1.744-0.444,3.236-1.342c1.307-0.78,2.306-1.512,3.011-2.187l0.232-0.104
		c0.08,0,0.121,0.036,0.121,0.121l-0.081,0.213C53.083,34.28,52.077,35.165,50.889,35.966z M61.236,32.486
		c-0.078,0.217-0.201,0.364-0.365,0.451c-0.531,0.289-0.939,0.337-1.23,0.15c-0.045-0.342-0.029-0.649,0.052-0.913
		c0.093-0.174,0.16-0.275,0.216-0.281l-0.164-0.314c-0.133-0.381-0.247-0.549-0.335-0.512c-0.425,0.162-1.127,0.94-2.104,2.321
		l-1.818,2.746c-0.458,0.695-0.89,1.101-1.317,1.196c-0.204,0.04-0.361-0.007-0.473-0.151l-0.173-0.35l0.405-1.508l1.354-3.929
		c0.277-0.846,0.372-1.489,0.301-1.953l-0.202-0.33l0.483-0.252l0.725,0.049c0.297,0.1,0.46,0.272,0.5,0.517
		c0.134,0.719-0.049,1.62-0.546,2.715l-0.611,1.25c-0.225,0.456-0.367,0.832-0.434,1.107l-0.036,0.493l0.894-1.226l1.065-1.589
		c0.928-1.327,1.725-2.107,2.403-2.352c0.274-0.102,0.529-0.102,0.774,0c0.255,0.117,0.441,0.332,0.553,0.646
		C61.534,31.296,61.548,31.642,61.236,32.486z"/>
	<path fill="#FFFFFF" d="M26.318,30.848c-1.096,0.127-2.841,1.486-5.236,4.072h-0.267l1.505-4.34l0.381-1.086l1.014-0.253l0.5-0.3
		c0.172-0.167,0.127-0.217-0.148-0.151l-1.215,0.269c0.543-1.679,0.767-2.803,0.684-3.377c-0.037-0.26-0.193-0.448-0.485-0.566
		l-0.708-0.098l-0.499,0.194l0.201,0.349c0.067,0.501-0.215,1.738-0.835,3.729c-0.692,0.053-1.386,0.069-2.081,0.03
		c-0.022-1.522-0.529-2.724-1.513-3.595c-0.543-0.484-1.201-0.714-1.969-0.679c-0.784,0.046-1.433,0.336-1.939,0.883
		c-0.321,0.34-0.455,0.773-0.396,1.303c0.052,0.472,0.223,0.874,0.508,1.215c0.566,0.68,1.596,1.145,3.088,1.376l0.879,0.095
		c-0.037,0.976-0.276,1.981-0.731,3.033c-0.434,0.905-0.924,1.656-1.477,2.252c-0.635,0.687-1.253,1.057-1.857,1.098
		c-0.553,0.04-1-0.261-1.343-0.882c-0.29-0.511-0.446-1.094-0.476-1.737l0.045-1.229c-0.009-0.614-0.135-0.925-0.381-0.925
		c-0.687,0-1.112,0.219-1.276,0.647c-0.23,0.584-0.821,1.339-1.775,2.269c-1.007,0.976-1.752,1.466-2.237,1.466
		c-0.186,0-0.261-0.145-0.23-0.438c0.021-0.381,0.433-1.364,1.23-2.952l0.627-1.008c0.305-0.514,0.469-0.833,0.484-0.978
		c0.007-0.124-0.061-0.198-0.217-0.239l-0.365-0.097l-0.813,0.187c-0.388,0.07-0.626,0.188-0.716,0.359L5.137,33.17
		c-0.708,1.538-1.074,2.498-1.111,2.886c-0.023,0.298,0.052,0.56,0.216,0.791c0.165,0.222,0.388,0.35,0.679,0.376
		c0.59,0.072,1.38-0.183,2.386-0.773c0.455-0.275,0.955-0.692,1.507-1.246l1.23-1.14c0.164,0.938,0.432,1.634,0.812,2.091
		c0.515,0.618,1.306,0.924,2.364,0.924c0.984,0,2.014-0.531,3.088-1.59c0.961-0.947,1.686-2.045,2.185-3.281
		c0.307-0.71,0.508-1.454,0.597-2.251l1.954-0.163l-1.737,5.127l-0.417,1.516l0.171,0.363c0.097,0.164,0.246,0.23,0.447,0.197
		c0.507-0.09,1.008-0.388,1.492-0.896l2.237-2.28c1.194-1.155,2.007-1.764,2.448-1.812c0.089-0.007,0.15,0.055,0.187,0.199
		l0.051,0.38c0.053,0.351-0.104,1.041-0.469,2.059c-0.344,0.937-0.627,1.564-0.858,1.889l-0.216,0.894
		c0.247,0.253,0.641,0.307,1.193,0.15c0.202-0.056,0.35-0.18,0.446-0.369c0.464-0.768,0.835-1.688,1.126-2.766
		c0.307-1.094,0.412-1.969,0.314-2.619c-0.044-0.343-0.179-0.6-0.396-0.78C26.854,30.882,26.609,30.812,26.318,30.848z
		 M14.453,27.188c-0.188-0.635-0.121-1.079,0.201-1.342l0.939-0.052c0.597,0.164,1.141,0.685,1.625,1.561
		c0.299,0.528,0.478,1.146,0.545,1.838C15.908,28.905,14.803,28.241,14.453,27.188z"/>
	<path fill="#FFFFFF" d="M45.741,30.744c-0.054-0.38-0.243-0.788-0.547-1.223c-0.253-0.342-0.627-0.499-1.11-0.463
		c-1.059,0.074-2.225,0.859-3.497,2.352l-0.179,0.146l-0.054-0.045l0.028-0.131c0.338-0.739,0.449-1.397,0.351-1.957
		c-0.035-0.222-0.12-0.424-0.244-0.61c-0.233-0.342-0.507-0.516-0.814-0.516l-0.066,0.084l0.066,0.148
		c0.097,0.163,0.083,0.47-0.052,0.91l-2.075,5.9c-0.812,2.453-1.154,4.278-1.021,5.48c0.044,0.411,0.141,0.754,0.298,1.031
		c0.172,0.305,0.382,0.461,0.628,0.461l0.201-0.1l0.083-0.133c-0.01-0.065-0.106-0.14-0.284-0.229
		c-0.119-0.033-0.194-0.16-0.231-0.382c-0.09-0.545,0.052-1.446,0.433-2.717c0.418-1.443,1.075-3.076,1.969-4.909l0.598-1.043
		c0.529-0.777,1.192-1.468,1.975-2.084c0.798-0.646,1.447-0.978,1.953-1.017c0.203-0.009,0.367,0.039,0.494,0.135
		c0.157,0.123,0.255,0.274,0.283,0.451c0.128,0.719-0.737,1.926-2.579,3.627l-1.927,1.709c-0.594,0.531-0.9,0.835-0.908,0.924
		c0,0.18,0.015,0.283,0.044,0.312h0.403c0.216-0.006,0.647-0.187,1.291-0.528c0.737-0.395,1.436-0.859,2.091-1.371
		C45.182,33.506,45.984,32.096,45.741,30.744z"/>
	<path fill="#FFFFFF" d="M34.358,32.274c0-0.506,0.328-1.005,0.977-1.505c0.619-0.477,1.192-0.718,1.739-0.718l0.826,0.084
		l0.217-0.231c-0.008-0.388-0.373-0.584-1.096-0.584c-0.859,0-1.745,0.312-2.649,0.947c-0.991,0.688-1.492,1.44-1.492,2.268
		c0,0.367,0.248,0.834,0.732,1.396c0.469,0.559,0.709,1.021,0.709,1.378c0,0.396-0.381,0.771-1.143,1.107
		c-0.633,0.275-1.125,0.414-1.476,0.414l-0.364-0.134l-0.032,0.014l-0.082,0.219c0,0.396,0.299,0.594,0.895,0.594
		c0.628,0,1.38-0.239,2.268-0.724c0.985-0.556,1.477-1.115,1.477-1.692c0-0.316-0.249-0.768-0.743-1.325
		C34.611,33.223,34.358,32.712,34.358,32.274z"/>
	<path fill="#FFFFFF" d="M30.331,29.885c-0.441,0-0.678,0.038-0.716,0.115L29.6,30.238l0.029,0.425l-0.314,1.625l-0.879,2.09
		c-0.261,0.617-0.44,1.28-0.529,1.99c-0.045,0.416,0.126,0.812,0.514,1.18c0.388,0.334,0.806,0.507,1.261,0.507
		c0.305,0,0.477-0.056,0.499-0.162c0.023-0.167-0.074-0.285-0.284-0.37l-0.365-0.313l-0.163-0.461c0-0.364,0.022-0.594,0.066-0.692
		l1.157-2.441c0.365-0.819,0.544-1.552,0.544-2.182l0.067-0.551l0.021-0.534C31.098,30.045,30.8,29.885,30.331,29.885z"/>
	<path fill="#FFFFFF" d="M60.601,29.823c-0.245-0.102-0.5-0.102-0.774,0c-0.679,0.244-1.476,1.024-2.403,2.352l-1.065,1.589
		l-0.894,1.226l0.036-0.493c0.066-0.275,0.209-0.651,0.434-1.107l0.611-1.25c0.497-1.095,0.68-1.996,0.546-2.715
		c-0.04-0.244-0.203-0.417-0.5-0.517l-0.725-0.049l-0.483,0.252l0.202,0.33c0.071,0.464-0.023,1.107-0.301,1.953l-1.354,3.929
		l-0.405,1.508l0.173,0.35c0.111,0.145,0.269,0.191,0.473,0.151c0.428-0.096,0.859-0.501,1.317-1.196l1.818-2.746
		c0.977-1.381,1.679-2.159,2.104-2.321c0.088-0.037,0.202,0.131,0.335,0.512l0.164,0.314c-0.056,0.006-0.123,0.107-0.216,0.281
		c-0.081,0.264-0.097,0.571-0.052,0.913c0.291,0.187,0.699,0.139,1.23-0.15c0.164-0.087,0.287-0.234,0.365-0.451
		c0.312-0.845,0.298-1.19-0.083-2.017C61.042,30.155,60.855,29.94,60.601,29.823z"/>
	<path fill="#FFFFFF" d="M53.995,33.088c0-0.085-0.041-0.121-0.121-0.121l-0.232,0.104c-0.705,0.675-1.704,1.406-3.011,2.187
		c-1.492,0.897-2.573,1.342-3.236,1.342c-0.499,0-0.694-0.268-0.597-0.812c0.209-1.098,0.744-2.156,1.61-3.185
		c0.738-0.871,1.59-1.571,2.552-2.116c0.288-0.163,0.519-0.247,0.693-0.247c0.232,0,0.35,0.116,0.35,0.359
		c0,0.264-0.17,0.587-0.517,0.959c-0.432,0.457-1.205,1.038-2.332,1.744c-0.156,0.088-0.231,0.195-0.231,0.329
		c0,0.129,0.075,0.163,0.216,0.122c0.771-0.187,1.485-0.507,2.149-0.95c0.737-0.483,1.185-0.989,1.341-1.521l0.056-0.388
		c0-0.454-0.159-0.901-0.466-1.358c-0.32-0.468-0.68-0.705-1.059-0.705c-0.29,0-0.748,0.222-1.365,0.664
		c-0.604,0.454-1.215,1.005-1.836,1.667c-1.557,1.673-2.334,3.09-2.334,4.258l0.083,0.518c0.264,0.937,0.845,1.41,1.739,1.41
		c0.938,0,2.086-0.46,3.441-1.381c1.188-0.801,2.194-1.686,3.025-2.665L53.995,33.088z"/>
	<rect x="35.251" y="9.914" fill="#FFFFFF" width="0.049" height="0.054"/>
	<path fill="#FFFFFF" d="M27.676,26.606c0-0.037,0.022-0.054,0.067-0.054l0.313,0.3l0.037-0.03h-0.037l-0.044-0.12l0.097-0.017
		l0.082,0.07v-0.07h-0.037l-0.031-0.079h0.098l0.082,0.029l-0.06-0.179l0.15,0.081l0.015-0.051l-0.081-0.03
		c0.021-0.054,0.007-0.091-0.039-0.1l-0.067-0.102c0.037-0.009,0.097,0.014,0.187,0.066c0.023-0.044,0-0.066-0.067-0.066
		c0.022-0.046,0-0.074-0.052-0.098l-0.097-0.096l-0.082-0.067c-0.022-0.045-0.052-0.066-0.082-0.066l0.015,0.028
		c-0.023,0.091-0.053,0.105-0.098,0.051l-0.15-0.12L27.66,25.74l-0.066-0.148l0.097,0.023l0.051,0.066h0.015l-0.23-0.282
		l-0.053-0.136c0.044-0.023,0.083-0.007,0.104,0.029l0.082,0.053v-0.03c-0.133-0.11-0.192-0.2-0.186-0.27l0.12,0.039l0.009,0.007
		l-0.077-0.126l-0.053-0.134c0.059-0.024,0.113,0.006,0.149,0.08l0.037-0.014l-0.082-0.083c-0.007-0.067-0.029-0.088-0.066-0.067
		l-0.038-0.133l0.104,0.022l0.045,0.059l0.037-0.014l-0.082-0.067l-0.066-0.113l-0.038-0.104l0.12,0.036l-0.054-0.119l-0.066-0.08
		l0.104-0.016l0.016,0.051h0.066l-0.066-0.081L27.578,24.1l0.082-0.015l0.083,0.082l0.015-0.015
		c-0.119-0.119-0.17-0.217-0.163-0.283l0.097,0.021l0.066,0.059v-0.044l-0.082-0.036c-0.038-0.075,0.007-0.12,0.118-0.128
		l-0.102-0.2c0.044-0.009,0.081,0,0.102,0.029l0.083,0.051v-0.03l-0.083-0.05c-0.036-0.07,0-0.114,0.098-0.136l-0.082-0.178
		l0.097,0.015l0.067,0.065v-0.049l-0.083-0.031l0.12-0.135l-0.12-0.165l0.202,0.044v-0.029h-0.037l-0.044-0.119l0.082-0.03
		l0.029,0.015l-0.014-0.066l-0.082-0.084c0.022-0.072,0.045-0.08,0.082-0.028c0.045,0.044,0.074,0.053,0.082,0.028l-0.052-0.095
		l-0.016-0.104l0.098,0.036c0.037,0.044,0.059,0.06,0.082,0.054v-0.038h-0.029L28.22,22.4l0.082-0.04l0.09,0.084l0.015-0.016
		l-0.105-0.12l-0.06-0.125h0.083l0.081,0.044l-0.052-0.098l-0.016-0.097c0.045-0.016,0.075-0.009,0.097,0.03l0.083,0.051V22.08
		h-0.029l-0.053-0.113c-0.007-0.036,0.016-0.045,0.083-0.036l0.037,0.021l-0.016-0.066l-0.088-0.083l0.088-0.037l0.113,0.037
		l-0.097-0.201l0.097,0.05l0.082,0.046l-0.03-0.067l-0.052-0.029l0.015-0.098l0.148,0.083l0.022-0.054l-0.089-0.029
		c-0.052-0.089-0.015-0.125,0.12-0.12c0.022-0.036,0.007-0.057-0.031-0.082l-0.066-0.081l0.066-0.015l0.046,0.059l0.082,0.022
		l-0.046-0.105l-0.051-0.096l0.179,0.066v-0.05h-0.015c-0.053-0.009-0.067-0.06-0.045-0.149l0.149,0.104l0.03-0.054h-0.03
		l-0.052-0.119l0.082-0.03l0.082,0.084l0.016-0.016l-0.031-0.038l-0.135-0.215l0.068-0.015l0.03,0.066h0.105l-0.053-0.066
		l-0.052-0.083h0.105c0.022,0.044,0.044,0.059,0.083,0.053l-0.069-0.203l0.097,0.039l0.068,0.045V20.46l-0.083-0.039l0.015-0.111
		l0.151,0.096l0.037-0.051h-0.037l-0.045-0.112c-0.016-0.038,0.013-0.044,0.082-0.038l0.029,0.023l-0.015-0.054l-0.083-0.12
		l0.083-0.015c0.043,0.054,0.083,0.075,0.12,0.054l-0.105-0.165h0.105l0.082,0.045l-0.067-0.1l0.014-0.095
		c0.038,0,0.06,0.015,0.082,0.045l0.068,0.037l-0.053-0.082l-0.015-0.104l0.097,0.015l0.089,0.066v-0.044h-0.037l-0.052-0.12
		l0.089-0.029h0.016v-0.067l0.082-0.036l0.081,0.082l0.032-0.03c-0.076-0.024-0.105-0.068-0.083-0.135l0.105-0.029
		c0.022-0.045,0.008-0.075-0.038-0.082l-0.044-0.104l0.061-0.015l0.037,0.065h0.097l-0.045-0.065l-0.052-0.083h0.097l0.083,0.052
		c0.014-0.044-0.008-0.083-0.068-0.119l0.021-0.083l0.084,0.053c0.021,0.029,0.044,0.037,0.067,0.029l-0.053-0.083l-0.014-0.097
		l0.097,0.016l0.082,0.066c0.007-0.052-0.016-0.082-0.082-0.082l0.014-0.119l0.104,0.015l0.044,0.066l0.024-0.03l-0.09-0.051
		l0.022-0.098l0.149,0.083l0.029-0.053H30.86l-0.068-0.096l0.098-0.054l0.053,0.038l-0.038-0.104l0.082-0.029l0.09,0.081
		l0.029-0.027c-0.082-0.024-0.112-0.069-0.097-0.12c0-0.045,0.038-0.06,0.112-0.053l-0.015-0.067l-0.067-0.06
		c0.007-0.067,0.029-0.082,0.067-0.038l0.119,0.068l-0.088-0.134c0.021-0.068,0.051-0.075,0.088-0.03l0.113,0.03l-0.054-0.068
		l-0.029-0.082h0.083c0.037,0.036,0.059,0.044,0.082,0.036l-0.03-0.065l-0.037-0.083h0.083c0.037,0.044,0.066,0.061,0.103,0.044
		l-0.066-0.194l0.082,0.045l0.081,0.039l-0.051-0.084l-0.015-0.105l0.104,0.024l0.082,0.06l-0.067-0.095v-0.098l0.097,0.029
		l0.067,0.054v-0.038l-0.083-0.045l0.015-0.105h0.082v-0.06l0.037-0.05l0.082,0.015l0.068,0.066l0.015-0.03l-0.083-0.05L32,17.097
		l0.15,0.082l0.029-0.053H32.15c-0.068,0-0.09-0.029-0.068-0.096l0.097-0.054l0.091,0.084l0.014-0.03h-0.014l-0.068-0.12l0.082-0.03
		h0.015v-0.068l0.097-0.05l0.022,0.015v-0.083c-0.015-0.03,0.015-0.037,0.083-0.03l0.082,0.082l0.03-0.038
		c-0.089-0.03-0.119-0.065-0.097-0.111l0.097-0.052h0.016v-0.066c-0.009-0.03,0.022-0.037,0.088-0.03l0.082,0.083l0.029-0.017
		c-0.074-0.052-0.104-0.096-0.097-0.132l0.112-0.054v-0.065c-0.008-0.031,0.015-0.039,0.082-0.031l0.038,0.015l-0.014-0.015
		c-0.053-0.09-0.016-0.128,0.11-0.119c-0.028-0.053-0.014-0.09,0.039-0.098h0.066v-0.066l0.112-0.044
		c-0.036-0.062-0.022-0.099,0.037-0.105h0.06v-0.068l0.12-0.045c-0.037-0.05-0.022-0.087,0.029-0.104h0.068
		c-0.054-0.081-0.017-0.118,0.117-0.111v-0.067c-0.007-0.038,0.015-0.043,0.083-0.038l0.029,0.024l-0.016-0.024
		c-0.052-0.081-0.014-0.119,0.121-0.11v-0.068c-0.009-0.037,0.015-0.045,0.081-0.03l0.029,0.014
		c-0.021-0.036-0.021-0.06-0.015-0.081c0-0.039,0.03-0.054,0.083-0.054l0.036,0.015v-0.066c-0.015-0.045,0.015-0.059,0.084-0.045
		l0.029,0.015c-0.022-0.038-0.022-0.059-0.015-0.083l0.082-0.05l0.037,0.016l-0.022-0.069l0.104-0.044h0.013v-0.067l0.082-0.052
		l0.102,0.082l0.02-0.03l-0.087-0.052l0.02-0.097l0.149,0.081l0.015-0.029l-0.083-0.052l0.017-0.12l0.162,0.081l0.017-0.027
		l-0.098-0.054l0.039-0.096l0.094,0.031l0.07,0.05v-0.029l-0.082-0.052l0.012-0.119l0.099,0.037c0.036,0.045,0.06,0.059,0.082,0.053
		v-0.038l-0.097-0.052l0.028-0.099l0.108,0.038l0.064,0.046l-0.053-0.098l-0.012-0.096l0.093,0.03l0.086,0.066l-0.049-0.096
		l-0.02-0.104l0.082,0.05c0.036,0.024,0.067,0.03,0.088,0.03l-0.035-0.067l-0.031-0.083h0.098c0.022,0.044,0.043,0.061,0.079,0.053
		l-0.064-0.098l0.016-0.081l0.088,0.03c-0.017,0.046,0.015,0.051,0.083,0.03l-0.04-0.06c-0.028-0.024-0.043-0.054-0.043-0.09
		l0.062-0.015l0.051,0.066l0.081,0.014l-0.029-0.065l-0.052-0.06c0.004-0.06,0.029-0.074,0.066-0.036
		c0.044,0.05,0.083,0.073,0.118,0.05l-0.022-0.066l-0.064-0.053l0.052-0.067l0.066,0.037c0,0.03,0.021,0.044,0.068,0.044h0.015
		v-0.059c0-0.037,0.026-0.052,0.081-0.052l0.038,0.015l-0.023-0.068l0.104-0.045h0.017v-0.065l0.081-0.054l0.084,0.098l0.034-0.044
		l-0.102-0.054l0.034-0.095l0.099,0.03l0.066,0.051v-0.036l-0.082-0.044l0.016-0.119l0.096,0.035l0.093,0.06l-0.07-0.195
		l0.081,0.031l0.083,0.054l-0.054-0.098l-0.013-0.103l0.095,0.05l0.082,0.053v-0.067h-0.027l-0.03-0.081h0.098
		c0.035,0.036,0.058,0.051,0.083,0.045l-0.083-0.114c0.021-0.051,0.043-0.066,0.083-0.036c0.041,0.052,0.082,0.072,0.116,0.052
		c-0.034-0.052-0.02-0.09,0.033-0.097l0.066-0.022v-0.044c0-0.046,0.03-0.06,0.097-0.052l0.051,0.03l-0.035-0.099
		c0-0.036,0.027-0.051,0.081-0.051l0.09,0.104l0.029-0.053l-0.097-0.051l0.03-0.098l0.095,0.039l0.066,0.045l-0.079-0.084
		l0.013-0.11l0.188,0.095l-0.066-0.201l0.081,0.051c0.038,0.024,0.061,0.03,0.083,0.03v-0.065h-0.015l-0.057-0.083l0.071-0.016
		l0.052,0.069l0.082,0.015l-0.015-0.068l-0.067-0.066l0.016-0.059l0.082,0.044c0,0.021,0.021,0.044,0.066,0.051l0.015-0.016v-0.051
		c0-0.044,0.037-0.059,0.104-0.052l0.083,0.083l0.014-0.03l-0.081-0.052l0.015-0.097l0.148,0.081l0.037-0.045l-0.103-0.036v-0.066
		l0.036-0.045l0.096,0.03l0.068,0.051l-0.052-0.082l-0.017-0.104l0.096,0.036l0.084,0.046v-0.067l-0.06-0.015
		c0-0.089,0.022-0.112,0.06-0.068l0.121,0.068l-0.015-0.083l-0.067-0.05l0.014-0.061l0.096,0.031l0.066,0.051h0.022v-0.066
		c-0.015-0.038,0.018-0.044,0.086-0.038l0.081,0.083l0.029-0.045l-0.097-0.038V11.11l0.028-0.045l0.105,0.03l0.066,0.051V11.11
		l-0.09-0.045l0.023-0.105l0.18,0.09l-0.052-0.068L39.111,10.9h0.103l0.082,0.06l-0.039-0.083l-0.043-0.097l0.043-0.015l0.15,0.081
		V10.78l0.08-0.03l0.083,0.081l0.038-0.051l-0.097-0.03v-0.066l0.029-0.052l0.082,0.03c0.037,0.045,0.06,0.06,0.082,0.05
		l-0.045-0.066c-0.044-0.008-0.059-0.035-0.037-0.081l0.097-0.013l0.106,0.065l-0.068-0.081c0-0.089,0.022-0.114,0.068-0.069
		l0.11,0.069v-0.069l0.104-0.05l0.082,0.081l0.014-0.015l-0.081-0.066l0.016-0.098l0.15,0.083l0.035-0.053h-0.035
		c-0.052-0.022-0.076-0.052-0.068-0.096c0-0.039,0.037-0.054,0.104-0.054l0.045,0.083h0.054l-0.038-0.068l-0.03-0.082h0.097
		l0.106,0.066l-0.055-0.081l-0.052-0.084c0.096-0.006,0.188,0.039,0.269,0.15l0.03-0.03l-0.095-0.052l0.012-0.119l0.104,0.021
		l0.062,0.06l0.02-0.03h-0.02c-0.055-0.021-0.075-0.06-0.062-0.12c-0.013-0.029,0.018-0.036,0.082-0.029l0.069,0.083H40.9
		l-0.085-0.083c0-0.081,0.022-0.104,0.068-0.066c0.064,0.051,0.112,0.074,0.134,0.066V9.818c0-0.039,0.03-0.053,0.097-0.053
		l0.082,0.089l0.016-0.021l-0.083-0.068l0.023-0.096l0.098,0.015l0.066,0.065L41.25,9.558l0.094,0.045l0.105,0.037l-0.036-0.066
		L41.36,9.489l0.269,0.15l0.015-0.022l-0.08-0.06l0.013-0.104l0.15,0.081l0.021-0.045h-0.021c-0.067,0-0.092-0.036-0.067-0.104
		l0.104-0.03l0.097,0.069V9.37l-0.066-0.03c0-0.081,0.023-0.105,0.066-0.066c0.069,0.051,0.113,0.075,0.136,0.066V9.274
		c-0.008-0.039,0.015-0.044,0.081-0.039h0.015V9.169l0.104-0.029l0.1,0.066l-0.069-0.081c0-0.083,0.023-0.104,0.069-0.068
		c0.064,0.053,0.111,0.075,0.133,0.068V9.057l0.082-0.036h0.013v-0.06c0.022-0.045,0.052-0.06,0.1-0.038l0.104,0.067V8.937h-0.023
		l-0.047-0.096l0.18,0.065l0.04-0.096l0.094,0.015l0.069,0.066L42.97,8.691l0.1,0.052l0.104,0.067V8.722l0.081-0.031l0.099,0.081
		l0.013-0.029h-0.013c-0.053-0.021-0.082-0.068-0.082-0.118c0-0.039,0.029-0.044,0.095-0.03l0.068,0.081h0.037V8.611h-0.037
		l-0.029-0.083l0.262,0.148l0.023-0.035l-0.093-0.046l0.023-0.118l0.096,0.035L43.8,8.558l-0.099-0.081l0.047-0.083l0.088,0.029
		c0.023,0.045,0.045,0.06,0.084,0.054l0.027-0.099h0.085V8.312h0.104c0.035,0.045,0.071,0.067,0.11,0.067V8.297l0.1-0.023l0.1,0.068
		V8.312h-0.037l-0.062-0.119h0.1l0.115,0.066V8.178l0.104-0.015h0.013V8.094l0.099-0.015c0.046,0.053,0.082,0.083,0.121,0.083V8.08
		l0.094-0.015l0.098,0.06c0.017-0.037-0.016-0.067-0.098-0.082c0-0.098,0.032-0.119,0.098-0.068l0.119,0.068l0.032-0.098
		l0.102,0.015l0.067,0.069L45.373,7.96l-0.031-0.082l0.264,0.15l0.02-0.015c-0.081-0.045-0.11-0.089-0.088-0.135l0.104-0.014
		l0.116,0.081V7.865l0.101-0.016l0.099,0.066l-0.099-0.089l0.03-0.096l0.248,0.185l0.034-0.021
		c-0.087-0.029-0.127-0.075-0.104-0.127l0.121-0.021l0.095,0.081l-0.047-0.081l-0.019-0.096L46.32,7.73l0.098,0.015l0.065,0.066
		l-0.065-0.192l0.266,0.192L46.7,7.767h-0.017c-0.064,0-0.088-0.036-0.064-0.103l0.097-0.015l0.118,0.082V7.664l0.098-0.015
		c0.046,0.051,0.082,0.082,0.12,0.082V7.649l0.095-0.015L47.245,7.7V7.649h-0.047c-0.036-0.009-0.042-0.044-0.019-0.098l0.065-0.021
		l0.037,0.089l0.097,0.03c0.036,0.044,0.059,0.06,0.082,0.051c-0.053-0.09-0.072-0.149-0.066-0.185L47.68,7.7l-0.098-0.081
		l0.028-0.104L47.895,7.7V7.649c-0.053,0.006-0.091,0-0.099-0.03l0.029-0.104l0.1,0.104h0.067l0.252,0.208
		c-0.02-0.021-0.029-0.036-0.02-0.06L48.29,7.73l0.065,0.081l0.12,0.083l0.099,0.066l0.199,0.203V8.08l0.149,0.03l0.128,0.134
		l0.023-0.015c-0.093-0.044-0.122-0.09-0.086-0.135l0.099-0.015c0.045,0.053,0.081,0.083,0.114,0.083V8.08l0.087-0.036l0.082,0.082
		l0.017-0.031l-0.085-0.051l0.016-0.098l0.097,0.015l0.081,0.069l-0.06-0.203l0.098,0.039l0.069,0.051V7.878h-0.017
		c-0.059-0.022-0.081-0.06-0.064-0.112l0.111-0.036l-0.111-0.112l-0.32-0.366l-0.15-0.104l-0.11-0.127l-0.018,0.03l0.083,0.05
		l-0.018,0.113l-0.117-0.097c-0.039,0.008-0.064-0.007-0.098-0.052l-0.065-0.045v0.06l0.082,0.021l-0.017,0.113l-0.104-0.044
		l-0.216-0.173v0.083c-0.036,0.045-0.074,0.037-0.098-0.015c-0.043-0.053-0.082-0.074-0.111-0.068v0.083l-0.104-0.015l-0.096-0.068
		l-0.039,0.104l-0.081-0.021l-0.083-0.06v0.06l0.069,0.021l-0.017,0.084c-0.053,0.021-0.091-0.009-0.099-0.084l-0.087-0.021
		l-0.082-0.06v0.06h0.053l0.013,0.134c-0.065-0.008-0.105-0.044-0.11-0.113c-0.04,0.024-0.069,0.009-0.105-0.036l-0.068-0.045
		c-0.02,0.036,0.007,0.067,0.089,0.081l-0.021,0.113l-0.113-0.067l-0.165-0.127c-0.019,0.036,0,0.067,0.084,0.081l-0.024,0.113
		L47.18,7.171c-0.01-0.044-0.047-0.075-0.099-0.09l-0.082-0.06l-0.016,0.03l0.082,0.05l-0.014,0.113l-0.268-0.194l-0.017,0.015
		c0.088,0.045,0.121,0.09,0.082,0.135l-0.098,0.016l-0.117-0.084v0.069l-0.098,0.016l-0.105-0.068v0.068L46.5,7.215l-0.017,0.081
		c-0.045,0.016-0.075-0.015-0.081-0.081c-0.039,0.022-0.068,0.015-0.099-0.029l-0.087-0.068l0.035,0.068l0.068,0.029L46.282,7.32
		l-0.079-0.053L46.118,7.2c-0.052-0.008-0.082-0.039-0.082-0.082l-0.028,0.053l0.098,0.044L46.066,7.32l-0.244-0.202v0.053
		l0.065,0.044l-0.03,0.105l-0.082-0.024L45.688,7.23v0.066h0.054l0.016,0.105h-0.069L45.589,7.32l-0.098-0.09l-0.014,0.037
		L45.56,7.32l-0.022,0.111L45.276,7.23l-0.015,0.022c0.08,0.029,0.111,0.075,0.08,0.127l-0.08,0.022l-0.104-0.066v0.066h0.036
		l0.014,0.083l-0.05,0.03l-0.098-0.099c-0.069-0.006-0.098-0.037-0.098-0.081l-0.021,0.044l0.089,0.052l-0.039,0.098l-0.244-0.194
		v0.044l0.067,0.052l-0.038,0.098l-0.082-0.015l-0.081-0.068l0.064,0.083v0.12l-0.081-0.054l-0.081-0.081l-0.106-0.068l-0.015,0.039
		h0.015l0.07,0.11l-0.098,0.023l-0.119-0.089l0.054,0.089l0.03,0.081L44.3,7.73l-0.104-0.096l-0.099-0.083l-0.013,0.044l0.082,0.054
		l-0.029,0.096l-0.256-0.194v0.044l0.066,0.054L43.92,7.745c-0.039,0.021-0.068,0.014-0.104-0.03l-0.068-0.051
		c-0.007,0.044,0.022,0.074,0.088,0.081l-0.02,0.12l-0.264-0.201l-0.014,0.012l0.081,0.069l-0.023,0.12
		c-0.036,0.021-0.071,0.006-0.097-0.039l-0.066-0.06l0.052,0.098v0.081c-0.133-0.067-0.215-0.126-0.248-0.179l-0.02,0.029
		l0.082,0.12c-0.022,0.053-0.052,0.068-0.098,0.03l-0.095-0.067v0.067h0.043l0.022,0.083l-0.065,0.015L43.003,7.96L42.97,7.945
		v0.083c-0.006,0.044-0.036,0.051-0.08,0.015l-0.096-0.068l0.029,0.09l0.013,0.06c-0.087,0.014-0.169-0.037-0.245-0.15l-0.017,0.039
		l0.082,0.066l-0.034,0.098c-0.031,0.021-0.06,0.015-0.083-0.03l-0.084-0.054l0.067,0.203l-0.149-0.083l-0.096-0.12L42.239,8.11
		l0.085,0.068l-0.018,0.119c-0.034,0.021-0.067,0.007-0.097-0.038l-0.066-0.066c-0.006,0.037-0.006,0.06,0.015,0.066l0.067,0.038
		L42.21,8.394l-0.104-0.067l-0.096-0.03l-0.015,0.097l-0.098-0.015l-0.05-0.067l-0.04,0.031c0.04,0.021,0.066,0.045,0.09,0.051
		l-0.023,0.119c-0.021,0-0.044-0.015-0.081-0.051l-0.082-0.053v0.069h0.016l0.052,0.081l-0.067,0.038l-0.096-0.104L41.51,8.408
		l-0.015,0.053h0.015l0.066,0.096L41.48,8.595l-0.097-0.067l0.045,0.083l0.021,0.081l-0.253-0.164l-0.028,0.016l0.082,0.067
		l-0.017,0.111l-0.148-0.097l-0.022,0.05l0.09,0.046l-0.023,0.104l-0.192-0.104l0.045,0.089l0.036,0.081l-0.069,0.015l-0.081-0.081
		c-0.064-0.009-0.102-0.038-0.102-0.083L40.733,8.76l0.082,0.066l-0.013,0.111c-0.037,0.024-0.061,0.015-0.082-0.03l-0.084-0.065
		l0.045,0.082l0.039,0.098c-0.039,0.021-0.069,0.014-0.107-0.031l-0.107-0.053l-0.017,0.105l-0.106-0.021l-0.043-0.06L40.301,8.99
		h0.039l0.043,0.12l-0.082,0.015l-0.097-0.068l0.052,0.098l0.017,0.081l-0.104-0.029L40.07,9.154L40.055,9.26l-0.096-0.024
		l-0.052-0.066l-0.038,0.037h0.038l0.066,0.113L39.869,9.34l-0.098-0.066l0.067,0.096v0.098l-0.098-0.06L39.637,9.37l0.023,0.054
		l-0.037,0.044l-0.097-0.015l-0.054-0.069l-0.029,0.024l0.098,0.06l-0.029,0.105h-0.091l-0.014,0.111l-0.179-0.081v0.066h0.028
		l0.039,0.081l-0.067,0.016l-0.082-0.081l-0.104-0.081l-0.029,0.015l0.099,0.066l-0.033,0.104l-0.081-0.023l-0.066-0.058
		L38.916,9.75h0.015l0.066,0.105l-0.105,0.03l-0.095-0.066l0.066,0.186c-0.066-0.015-0.1-0.044-0.1-0.09h-0.089l0.089,0.12
		c-0.015,0.054-0.034,0.068-0.066,0.03l-0.118-0.06l-0.082-0.09l-0.016,0.024l0.084,0.066l-0.017,0.113h-0.082v0.066l-0.104,0.015
		l-0.098-0.066c-0.022,0.046,0,0.075,0.067,0.082c0,0.083-0.022,0.105-0.067,0.068l-0.134-0.068l0.015,0.068
		c-0.006,0.037-0.045,0.051-0.096,0.051h-0.017l-0.037,0.099l-0.081-0.015l-0.068-0.068L37.834,10.4h0.014l0.068,0.097
		c-0.022,0.054-0.054,0.067-0.098,0.038l-0.097-0.069l0.03,0.045l0.066,0.053c0.008,0.046,0,0.073-0.037,0.081
		c-0.069-0.008-0.098-0.035-0.098-0.081h-0.069v0.067l0.069,0.052c-0.021,0.066-0.046,0.074-0.081,0.028l-0.134-0.08l0.013,0.014
		l-0.013,0.12l-0.1-0.015l-0.05-0.066l-0.015,0.016l0.082,0.066l-0.03,0.097l-0.083-0.016l-0.066-0.066l-0.023,0.051h0.023
		l0.066,0.1c-0.015,0.043-0.043,0.05-0.09,0.028l-0.095-0.06c0,0.021,0.015,0.044,0.052,0.081v0.098
		c-0.024,0.007-0.052,0-0.085-0.029l-0.081-0.053v0.068l0.066,0.045c-0.02,0.065-0.052,0.079-0.089,0.035
		c-0.036-0.051-0.075-0.075-0.11-0.066l-0.017,0.119c-0.042,0.022-0.098-0.009-0.147-0.088l-0.023,0.02l0.09,0.068l-0.038,0.096
		l-0.081-0.014l-0.068-0.066l-0.015,0.045l0.083,0.036l-0.017,0.113c-0.037,0.021-0.066,0.015-0.104-0.029l-0.059-0.054v0.039
		l0.081,0.045l-0.038,0.105l-0.08-0.038l-0.082-0.046l0.051,0.099l0.016,0.096l-0.117-0.081h-0.048v0.066h0.017l0.031,0.081
		l-0.048,0.016l-0.05-0.061h-0.082l0.082,0.113c-0.009,0.051-0.033,0.067-0.067,0.03l-0.097-0.059l-0.038-0.023v0.023l-0.015,0.109
		l-0.098-0.014l-0.052-0.067l-0.017,0.016l0.083,0.065l-0.031,0.1l-0.087-0.016l-0.06-0.068l-0.025,0.053l0.085,0.03l-0.017,0.119
		c-0.029,0.021-0.059,0.005-0.096-0.029l-0.068-0.054v0.03h0.014l0.069,0.12l-0.098,0.015l-0.103-0.066l0.065,0.105v0.096
		c-0.023,0-0.046-0.015-0.081-0.051l-0.081-0.03l0.035,0.065l0.015,0.083l-0.05,0.016l-0.053-0.069h-0.062v0.069h0.033l0.029,0.081
		l-0.062,0.015l-0.049-0.044h-0.081l0.081,0.097l-0.055,0.051l-0.112-0.066l-0.064-0.053l0.042,0.119
		c0,0.031-0.028,0.036-0.082,0.031l-0.082-0.082v0.051l0.052,0.031l-0.012,0.119l-0.104-0.024l-0.046-0.057l-0.022,0.013
		l0.091,0.068l-0.039,0.096l-0.131-0.082l-0.033,0.016l0.083,0.066L34.67,12.92l-0.101-0.022l-0.047-0.067l-0.017,0.039l0.083,0.05
		l-0.02,0.098l-0.1-0.014l-0.052-0.069l-0.03,0.045l0.082,0.038l-0.017,0.111c-0.043,0.024-0.072,0.016-0.095-0.03l-0.067-0.051
		c-0.014,0.036,0,0.06,0.045,0.066l0.036,0.083l-0.103,0.021l-0.099-0.065l0.054,0.081l0.029,0.083h-0.083l-0.098-0.053l0.067,0.083
		v0.104l-0.082-0.038l-0.104-0.045l0.066,0.194l-0.096-0.081h-0.068l0.031,0.066l0.037,0.081l-0.068,0.014l-0.053-0.065h-0.066
		v0.065l0.066,0.054c-0.007,0.051-0.028,0.067-0.066,0.03l-0.126-0.06l0.096,0.125l-0.082,0.053l-0.118-0.068l0.083,0.134
		c-0.01,0.054-0.031,0.069-0.068,0.03l-0.127-0.067l0.098,0.135c-0.008,0.066-0.037,0.09-0.083,0.052l-0.118-0.066l0.052,0.08
		l0.029,0.084l-0.06,0.015l-0.037-0.044h-0.098l0.045,0.065l0.053,0.069c-0.008,0.021-0.029,0.03-0.065,0.03l-0.047-0.067h-0.089
		l0.089,0.12l-0.021,0.044l-0.067-0.015l-0.113-0.066l0.068,0.104l0.015,0.097c-0.052,0.009-0.09-0.016-0.096-0.082l-0.083,0.017
		l0.083,0.117l-0.024,0.045l-0.06-0.016c-0.014-0.044-0.051-0.066-0.118-0.066l0.066,0.096l0.014,0.104
		c-0.052,0.007-0.089-0.016-0.097-0.082l-0.08,0.015l0.08,0.111c-0.007,0.06-0.03,0.074-0.067,0.039l-0.095-0.068l0.014,0.083
		l0.046,0.081l-0.06,0.038l-0.053-0.068h-0.082l0.044,0.083l0.038,0.067l-0.067,0.014l-0.03-0.051h-0.104l0.104,0.104
		c-0.015,0.067-0.045,0.081-0.089,0.044l-0.113-0.068l0.082,0.12c-0.007,0.068-0.029,0.082-0.066,0.053l-0.135-0.069l0.053,0.084
		l0.052,0.081c-0.016,0.024-0.039,0.03-0.067,0.03l-0.053-0.06h-0.066v0.06h0.037l0.029,0.09l-0.066,0.015l-0.032-0.067h-0.066
		l0.066,0.151c-0.006,0.021-0.029,0.027-0.066,0.027l-0.052-0.065h-0.068l0.068,0.2L31.77,15.62h-0.067l0.067,0.097v0.098
		l-0.082-0.031l-0.104-0.053l0.068,0.083c0.037,0.044,0.037,0.082,0,0.12l-0.083-0.054l-0.082-0.043l0.015,0.068l0.067,0.03
		l-0.014,0.096c-0.045,0.023-0.075,0.014-0.097-0.03l-0.082-0.052v0.036l0.097,0.045l-0.037,0.119l-0.083-0.015l-0.068-0.081
		l-0.015,0.045l0.083,0.051l-0.014,0.098l-0.098-0.015l-0.053-0.068l-0.029,0.016l0.097,0.067l-0.03,0.119l-0.088-0.014l-0.06-0.089
		l-0.023,0.036l0.083,0.067l-0.016,0.097l-0.149-0.081v0.03h0.015l0.053,0.119c0,0.036-0.03,0.052-0.097,0.052l-0.038-0.024
		l0.022,0.024c0.03,0.065-0.008,0.103-0.104,0.11l0.082,0.119c-0.007,0.068-0.038,0.083-0.082,0.045l-0.112-0.06l0.044,0.083
		l0.037,0.082l-0.067,0.014l-0.036-0.066h-0.059l0.045,0.096l0.014,0.105l-0.082-0.037l-0.097-0.044l0.068,0.081l0.015,0.112
		c-0.037,0-0.068-0.014-0.097-0.045l-0.084-0.053v0.053l0.084,0.045L30.48,17.33l-0.104-0.025l-0.045-0.06l-0.038,0.03l0.097,0.054
		l-0.015,0.095l-0.097-0.014l-0.068-0.067l-0.014,0.015l0.083,0.134c0.007,0.043-0.015,0.058-0.083,0.051h-0.015l-0.022,0.096
		h-0.097l0.03,0.069l0.067,0.065c-0.008,0.068-0.038,0.083-0.082,0.044c-0.045-0.05-0.082-0.075-0.112-0.066l0.03,0.089l0.052,0.081
		c-0.007,0.024-0.03,0.031-0.067,0.031l-0.038-0.066H29.86l0.067,0.082l0.015,0.104l-0.097-0.022l-0.082-0.059v0.044l0.082,0.037
		l-0.015,0.113l-0.096-0.016l-0.052-0.068l-0.016,0.016l0.083,0.069l-0.015,0.104l-0.105-0.023l-0.066-0.067l-0.016,0.022
		l0.082,0.068l-0.015,0.111l-0.096-0.014l0.096,0.179c-0.007,0.021-0.03,0.036-0.067,0.036l-0.029-0.066h-0.068l0.044,0.096
		l0.023,0.083l-0.106-0.03l-0.081-0.053l0.014,0.068l0.067,0.051l-0.015,0.084l-0.096-0.016l-0.053-0.068l-0.015,0.03l0.082,0.054
		l-0.014,0.096l-0.105-0.015l-0.06-0.067l-0.022,0.016l0.083,0.066c0.037,0.083,0,0.127-0.098,0.135l0.053,0.083l0.03,0.065
		c-0.007,0.024-0.03,0.03-0.067,0.03l-0.029-0.081h-0.068l0.053,0.104l0.015,0.096l-0.097-0.015l-0.089-0.066v0.05l0.089,0.03
		l-0.022,0.12l-0.149-0.105l-0.015,0.039l0.083,0.066l-0.015,0.095l-0.12-0.015l0.052,0.068l0.068,0.125l-0.068,0.024l-0.052-0.068
		H28.69l0.044,0.083l0.037,0.081c-0.037,0.009-0.096-0.014-0.186-0.065v0.051l0.082,0.044l-0.015,0.104l-0.097-0.021l-0.066-0.06
		l-0.017,0.015l0.083,0.066c0.03,0.075-0.007,0.119-0.104,0.128l0.052,0.089l0.036,0.06l-0.088,0.021l-0.016-0.066H28.37
		l0.022,0.066l0.061,0.045l-0.016,0.081l-0.164-0.081l-0.016,0.021l0.069,0.06l0.014,0.069c0.008,0.037-0.014,0.051-0.083,0.051
		l-0.081-0.096v0.045l0.15,0.215c-0.016,0.023-0.039,0.029-0.069,0.015L28.22,20.67h-0.067l0.067,0.105v0.095l-0.098-0.016
		l-0.066-0.066l-0.015,0.053h0.015c0.066,0,0.09,0.029,0.066,0.098c0.009,0.035-0.014,0.05-0.081,0.05l-0.083-0.104v0.054
		l0.149,0.214l-0.067,0.015l-0.03-0.065h-0.068l0.015,0.065l0.067,0.054l-0.015,0.081l-0.104-0.014l-0.068-0.066l-0.014,0.015
		l0.082,0.065c0.037,0.069,0,0.112-0.097,0.135l0.067,0.095l0.014,0.099c-0.038,0-0.059-0.014-0.082-0.044l-0.082-0.054v0.054
		l0.082,0.044l-0.016,0.105l-0.102-0.024l-0.068-0.06l-0.014,0.016l0.118,0.114l0.066,0.134l-0.066,0.015l-0.052-0.068h-0.066
		l0.037,0.068l0.045,0.036l-0.016,0.098l-0.149-0.098l-0.015,0.03c0.075,0.038,0.104,0.074,0.082,0.119
		c0,0.03-0.038,0.045-0.12,0.045l0.089,0.12l0.015,0.094l-0.104-0.015l-0.06-0.065l-0.022,0.054h0.022
		c0.067,0,0.083,0.026,0.06,0.096c0.016,0.044-0.015,0.059-0.097,0.05l0.067,0.098l0.015,0.12l-0.082-0.015l-0.067-0.089
		l-0.015,0.036l0.066,0.053l0.015,0.061c0,0.036-0.038,0.05-0.112,0.05l0.082,0.119c0.03,0.03,0.037,0.061,0.015,0.099l-0.097-0.015
		l-0.067-0.068l-0.023,0.015l0.053,0.053l0.134,0.179c-0.038,0.037-0.059,0.037-0.082,0l-0.104-0.045l0.023,0.06l0.067,0.052
		l-0.023,0.095l-0.148-0.095l-0.016,0.035c0.127,0.099,0.18,0.196,0.164,0.277l-0.082-0.045l-0.083-0.054v0.054h0.016
		c0.051,0.022,0.075,0.052,0.067,0.096c0,0.04-0.037,0.054-0.112,0.054l0.112,0.126l-0.016,0.088l-0.097-0.021l-0.052-0.068
		l-0.031,0.023l0.179,0.275l-0.097-0.031c-0.014-0.044-0.044-0.059-0.083-0.05v0.036l0.112,0.084l0.067,0.131
		c-0.006,0.033-0.044,0.038-0.097,0.033l-0.022-0.067h-0.06v0.035h0.031l0.052,0.113c0.007,0.044-0.022,0.06-0.104,0.052
		l0.036,0.067l0.067,0.045l-0.022,0.105l-0.06,0.014v0.017l0.083,0.08l-0.022,0.105l-0.081,0.013l0.104,0.164
		c-0.014,0.039-0.052,0.046-0.104,0.039l0.081,0.081l0.068,0.112c0.067,0.022,0.089,0.067,0.051,0.121h-0.067l-0.052-0.084
		l-0.06-0.022v0.053c0.128,0.11,0.188,0.2,0.179,0.27l-0.097-0.023l-0.052-0.061l-0.031,0.015l0.098,0.098l0.097,0.068
		c-0.029,0.051-0.016,0.089,0.038,0.098c0.052,0.021,0.074,0.059,0.067,0.104h-0.104l-0.083-0.068l0.217,0.263l0.179,0.229h-0.097
		c-0.022-0.037-0.044-0.059-0.082-0.059l0.462,0.478l-0.044-0.07L27.676,26.606z"/>
	<polygon fill="#FFFFFF" points="34.984,11.608 34.954,11.542 34.931,11.557 	"/>
	<path fill="#FFFFFF" d="M36.424,13.861l-0.03-0.084c-0.045,0.024-0.076,0.015-0.099-0.03l-0.066-0.051l0.048,0.067l0.034,0.082
		l-0.103,0.016l-0.097-0.069l0.051,0.105l0.017,0.099l-0.121-0.084h-0.043v0.054h0.015l0.028,0.096l-0.043,0.014l-0.053-0.066
		h-0.083l0.052,0.081l0.031,0.069c-0.045,0.035-0.074,0.021-0.098-0.03l-0.12-0.054l0.017,0.084
		c0.013,0.035-0.017,0.051-0.085,0.051l-0.082-0.081l-0.014,0.015l0.083,0.066l-0.029,0.098l-0.083-0.015l-0.068-0.067l-0.02,0.015
		l0.088,0.068l-0.022,0.119l-0.096-0.015l-0.052-0.067l-0.015,0.029l0.081,0.053l-0.031,0.097l-0.081-0.015l-0.051-0.065
		l-0.033,0.027h0.033l0.051,0.12c-0.016,0.044-0.044,0.053-0.084,0.03l-0.104-0.06c-0.006,0.029,0.009,0.052,0.055,0.06l0.029,0.104
		c-0.029,0.029-0.069,0.029-0.11,0l-0.086-0.067v0.03l0.086,0.052l-0.017,0.119c-0.046,0.009-0.098-0.02-0.15-0.089v0.039
		l0.15,0.215l-0.069,0.014l-0.051-0.051h-0.054c-0.007,0.021,0,0.045,0.023,0.051l0.059,0.03l-0.028,0.104L34.9,15.158l-0.052-0.067
		l-0.029,0.015l0.081,0.065c-0.006,0.046,0,0.076,0.03,0.084l0.054,0.081l-0.054,0.03l-0.042-0.06h-0.069l0.069,0.084v0.11
		l-0.15-0.097l-0.022,0.028l0.091,0.069c0.027,0.066-0.01,0.11-0.12,0.119l0.052,0.082l0.029,0.068c0,0.03-0.029,0.036-0.081,0.03
		l-0.017-0.068h-0.066l0.033,0.068l0.05,0.037l-0.017,0.098l-0.147-0.098l-0.017,0.029l0.083,0.069l-0.119,0.119l0.053,0.081
		l0.047,0.067l-0.085,0.016l-0.097-0.054l0.03,0.068l0.052,0.031l-0.017,0.103l-0.147-0.103l-0.015,0.036
		c0.007,0.023,0.03,0.037,0.067,0.053l0.014,0.06c0,0.044-0.028,0.057-0.081,0.05l-0.082-0.081v0.03l0.127,0.214l-0.045,0.037
		l-0.052-0.067h-0.068l0.068,0.201c-0.022,0-0.047-0.015-0.084-0.052l-0.082-0.052v0.052l0.082,0.052l-0.015,0.098l-0.104-0.015
		l-0.044-0.068l-0.037,0.016l0.081,0.068l-0.015,0.11l-0.066,0.024v0.014l0.066,0.082l-0.066,0.053l-0.135-0.067l0.068,0.112
		l0.037,0.106c-0.037,0-0.061-0.016-0.083-0.039l-0.104-0.045l0.038,0.045l0.044,0.053l-0.016,0.081l-0.082-0.014l-0.066-0.067
		l-0.016,0.051l0.082,0.03l-0.015,0.12l-0.096-0.024v0.083c0.007,0.037-0.021,0.046-0.09,0.037l-0.082-0.082v0.045l0.082,0.09
		c0.015,0.05,0.037,0.081,0.068,0.081l-0.068,0.044l-0.127-0.066l0.045,0.089l0.053,0.081l-0.066,0.031l-0.054-0.066h-0.06
		l0.06,0.082v0.104l-0.081-0.037l-0.081-0.044v0.044l0.081,0.037l-0.016,0.113l-0.098-0.016l-0.051-0.068l-0.03,0.038l0.081,0.046
		l-0.015,0.104l-0.148-0.09l-0.023,0.022c0.089,0.03,0.121,0.074,0.083,0.128c0,0.036-0.03,0.05-0.083,0.05h-0.03l-0.014,0.096
		h-0.083l0.015,0.039c0.009,0.066,0.031,0.096,0.068,0.096l-0.068,0.053l-0.133-0.068l0.051,0.083l0.044,0.081
		c-0.008,0.024-0.029,0.038-0.067,0.038l-0.045-0.068h-0.067l0.067,0.18c-0.021,0.008-0.052,0-0.08-0.03l-0.083-0.052l0.044,0.082
		l0.039,0.104l-0.105-0.021l-0.097-0.044v0.029l0.082,0.052c0.022,0.054,0.022,0.089-0.015,0.098l-0.082-0.015l-0.067-0.067
		l-0.015,0.052l0.082,0.031l-0.015,0.119l-0.148-0.104l-0.038,0.035l0.082,0.069c0.023,0.051,0.023,0.09-0.015,0.096l-0.149-0.081
		l-0.015,0.015l0.082,0.065l-0.015,0.12h-0.105v0.06c0.016,0.021-0.015,0.036-0.081,0.036H32l-0.016,0.113l-0.118-0.015l0.052,0.081
		l-0.134,0.054l0.082,0.119c-0.008,0.066-0.03,0.081-0.068,0.045l-0.111-0.069l0.029,0.083l0.052,0.09
		c-0.008,0.021-0.03,0.021-0.067,0.016l-0.051-0.069h-0.068v0.069h0.038l0.03,0.095l-0.068,0.015l-0.029-0.066h-0.067l0.052,0.104
		l0.016,0.097l-0.082-0.03l-0.037-0.066h-0.061l0.061,0.097c0.037,0.045,0.037,0.074,0,0.096l-0.083-0.03l-0.083-0.051l0.053,0.081
		c0.044,0.023,0.052,0.053,0.03,0.09l0.104,0.06c0.03,0.044,0.06,0.06,0.097,0.054v-0.068l0.081-0.045l0.038,0.016l-0.021-0.082
		l0.104-0.039l0.044,0.039l-0.029-0.104l0.083-0.045l0.082,0.096l0.038-0.051l-0.104-0.045l0.037-0.104l0.082,0.023l0.068,0.06
		l0.015-0.045l-0.083-0.038L32,20.097l0.097,0.03l0.082,0.065v-0.051l-0.097-0.044l0.015-0.105l0.12,0.037l0.067,0.053
		c0.022-0.044-0.007-0.074-0.082-0.09c-0.023-0.098,0-0.134,0.082-0.114l0.068,0.1h0.044l-0.082-0.195l0.104,0.045l0.083,0.037
		l-0.052-0.082l-0.015-0.104l0.082,0.036c0.037,0.031,0.067,0.044,0.097,0.044l-0.044-0.081l-0.038-0.083h0.098l0.088,0.054
		l-0.038-0.069l-0.028-0.082h0.08c0.03,0.046,0.06,0.06,0.097,0.046l-0.052-0.082c-0.029-0.008-0.038-0.038-0.029-0.083h0.096
		c0.037,0.046,0.06,0.059,0.082,0.051l-0.029-0.066l-0.03-0.081h0.083c0.029,0.044,0.059,0.059,0.096,0.05v-0.066h-0.029
		l-0.053-0.104h0.096c0.039,0.045,0.061,0.06,0.084,0.05l-0.029-0.065l-0.038-0.083h0.089c0.03,0.044,0.06,0.059,0.083,0.052
		l-0.036-0.067l-0.032-0.081h0.098l0.082,0.029l-0.066-0.083l0.021-0.097l0.082,0.045l0.066,0.036l-0.052-0.104l-0.015-0.096
		l0.098,0.051c0.038,0.024,0.059,0.03,0.081,0.03l-0.052-0.081l-0.015-0.098l0.083,0.03c0.035,0.038,0.059,0.053,0.08,0.053
		l-0.045-0.098l-0.014-0.105l0.11,0.038l0.068,0.046l-0.053-0.084l-0.016-0.095h0.082l0.016-0.12l0.105,0.023l0.066,0.061
		l0.015-0.03l-0.081-0.053l0.015-0.097l0.148,0.082l0.016-0.053h-0.016c-0.067,0-0.09-0.029-0.067-0.098
		c0-0.035,0.03-0.051,0.083-0.051l0.104,0.089l0.016-0.038h-0.016c-0.061-0.021-0.083-0.06-0.068-0.11l0.084-0.039l0.081,0.083
		l0.016-0.03l-0.082-0.053c-0.037-0.051-0.022-0.09,0.03-0.096l0.066-0.016v-0.068l0.117-0.036l-0.035-0.098l-0.046-0.082
		l0.068-0.015l0.029,0.06h0.1l-0.047-0.06l-0.053-0.089h0.1c0.034,0.038,0.067,0.044,0.087,0.038l-0.053-0.083l-0.015-0.105
		l0.081,0.039l0.083,0.051L34.7,17.291l-0.014-0.096l0.098,0.029c0.035,0.045,0.058,0.06,0.081,0.052v-0.03l-0.098-0.05l0.039-0.098
		h0.082v-0.066l0.082-0.054l0.028,0.016l-0.015-0.046L34.9,16.828l0.099-0.016l0.105,0.068l-0.038-0.083l-0.054-0.104h0.092
		c0.028,0.045,0.058,0.06,0.081,0.052l-0.053-0.098l-0.012-0.104l0.093,0.039l0.086,0.043v-0.03h-0.016
		c-0.07-0.02-0.082-0.074-0.053-0.148l0.082,0.015v-0.081l0.088-0.054l0.046,0.038l-0.112-0.202l0.066-0.015l0.046,0.053h0.081
		l-0.081-0.104l0.016-0.083l0.088,0.052l0.062,0.031l-0.047-0.098c-0.037-0.037-0.037-0.066-0.015-0.096l0.098,0.015l0.053,0.066
		l0.028-0.036h-0.028l-0.067-0.112c0-0.037,0.029-0.046,0.096-0.037l0.031,0.015l-0.017-0.045l-0.081-0.105
		c0.022-0.074,0.052-0.083,0.081-0.028c0.046,0.044,0.075,0.05,0.081,0.028l-0.042-0.098l-0.022-0.096l0.104,0.03l0.083,0.054
		v-0.038h-0.041l-0.059-0.113l0.1-0.038l0.029,0.024l-0.015-0.024l-0.031-0.081c-0.043-0.023-0.06-0.054-0.052-0.098l0.068-0.016
		l0.096,0.069l-0.044-0.105l-0.022-0.098l0.104,0.015l0.045,0.068l0.036-0.03l-0.104-0.054c-0.021-0.066,0.023-0.11,0.121-0.134
		l-0.121-0.164l0.202,0.068V14.77h-0.015c-0.066-0.022-0.09-0.06-0.066-0.111l0.081-0.052l0.084,0.082l0.034-0.015l-0.118-0.096
		l-0.066-0.134h0.102c0.022,0.036,0.049,0.044,0.083,0.027l-0.051-0.058c-0.051,0-0.076-0.023-0.051-0.067
		c0-0.045,0.034-0.061,0.102-0.052l0.083,0.081l0.015-0.014c-0.118-0.127-0.172-0.216-0.165-0.285h0.083
		c-0.036-0.074,0-0.119,0.096-0.134L36.424,13.861z"/>
	<path fill="#FFFFFF" d="M39.34,9.489c-0.023,0.054,0.006,0.084,0.081,0.084l-0.014-0.015L39.34,9.489z"/>
	<polygon fill="#FFFFFF" points="27.66,25.1 27.617,25.1 27.66,25.13 	"/>
	<polygon fill="#FFFFFF" points="27.617,25.1 27.604,25.092 27.609,25.1 	"/>
	<polygon fill="#FFFFFF" points="36.598,13.815 36.344,13.577 36.327,13.601 36.461,13.71 36.557,13.845 	"/>
	<polygon fill="#FFFFFF" points="30.942,20.707 31.188,20.939 31.204,20.885 30.972,20.67 	"/>
	<path fill="#FFFFFF" d="M31.436,20.721l-0.016-0.066h-0.045c-0.045-0.045-0.052-0.083-0.022-0.112l-0.097-0.016l-0.097-0.066
		l0.097,0.096l-0.03,0.098l-0.088-0.015l-0.083-0.068v0.053h0.023c0.067,0,0.082,0.03,0.06,0.097l0.104,0.054l0.082,0.066
		l-0.053-0.082c-0.052-0.015-0.066-0.044-0.045-0.089l0.098-0.015C31.367,20.707,31.404,20.729,31.436,20.721z"/>
	<polygon fill="#FFFFFF" points="35.381,16.531 35.401,16.479 35.381,16.479 35.35,16.479 	"/>
	<path fill="#FFFFFF" d="M33.179,7.431l0.194,0.188c0.022-0.045,0.008-0.074-0.044-0.089c-0.053,0-0.075-0.03-0.053-0.083
		l0.067-0.045l0.052,0.113L33.641,7.7h0.03l-0.08-0.081l0.021-0.104c0.037-0.024,0.074,0,0.11,0.065l0.098,0.069
		c0.045,0.044,0.082,0.073,0.105,0.082V7.649l0.147,0.027l0.136,0.135l0.016-0.044c-0.022,0-0.054-0.014-0.084-0.036l0.015-0.112
		l0.181,0.112l0.036-0.112l0.265,0.192l0.02-0.015c-0.087-0.043-0.121-0.087-0.087-0.132l0.087-0.015l0.111,0.082V7.664l0.121-0.015
		l0.096,0.082V7.649l0.12-0.015L35.186,7.7l-0.081-0.081l0.017-0.104l0.26,0.185l0.021-0.036h-0.021
		c-0.055-0.024-0.074-0.06-0.067-0.113h0.103l0.112,0.068V7.529h0.12l0.081,0.066l-0.028-0.066l-0.038-0.083l0.066-0.015
		l0.096,0.083l0.122,0.081V7.551l-0.1-0.036l0.031-0.113c0.098,0.03,0.179,0.098,0.247,0.194l0.036-0.015
		c-0.09-0.044-0.126-0.089-0.104-0.134l0.121-0.015l0.098,0.083V7.431c0.051-0.045,0.096-0.045,0.117,0
		c0.045,0.054,0.075,0.083,0.096,0.083V7.431h0.119l0.098,0.083V7.431l0.165,0.039l0.118,0.125l0.032-0.044h-0.032l-0.064-0.104
		c0.033-0.052,0.064-0.052,0.097,0l0.119,0.068l0.097,0.12l0.119,0.096l-0.104-0.112l0.021-0.104l0.113,0.081l0.216,0.216
		l0.216,0.232c-0.037,0.036-0.074,0.036-0.123,0l-0.081-0.068l0.138,0.15l0.096,0.134L37.9,8.394
		c-0.045,0.023-0.074,0.009-0.097-0.03c-0.015-0.046-0.045-0.06-0.082-0.052L37.9,8.611l-0.097-0.016l-0.052-0.067l-0.03,0.016
		l0.148,0.119l0.03,0.164l-0.097-0.015l-0.052-0.067l-0.03,0.017l0.112,0.11L37.9,8.99l-0.066,0.031l-0.053-0.06h-0.06l0.097,0.081
		l-0.037,0.112L37.695,9.14l-0.064-0.083l-0.017,0.015l0.081,0.083L37.684,9.26l-0.11-0.024l0.041,0.084l0.069,0.065l-0.015,0.069
		l-0.066-0.03L37.481,9.37l0.04,0.054l-0.119,0.044h-0.016l-0.03,0.105h-0.083l-0.021,0.111l-0.112-0.066l-0.166-0.128
		c-0.017,0.045,0,0.076,0.047,0.084l0.034,0.066l-0.034,0.044c-0.069-0.022-0.097-0.06-0.097-0.111h-0.054l-0.382-0.367
		l-0.043-0.052l-0.037-0.133h0.118l-0.066-0.06c-0.052-0.045-0.074-0.097-0.052-0.15l0.096-0.023l-0.016-0.044
		c0-0.043,0.038-0.058,0.119-0.052l0.017-0.096l0.095,0.016l0.082,0.065L36.76,8.611c-0.045-0.008-0.061-0.038-0.054-0.083
		l0.054-0.051l0.082,0.118l0.282,0.177V8.744h-0.021c-0.057-0.021-0.077-0.068-0.062-0.118l0.1-0.015l0.097,0.065l-0.066-0.199
		l0.103,0.035c0.007,0.024,0.031,0.039,0.061,0.045l-0.046-0.066l-0.051-0.098l-0.344-0.299L36.871,8.11l0.081,0.068l-0.027,0.119
		l-0.247-0.203L36.654,8.11l0.09,0.068l-0.038,0.119c-0.038,0.021-0.061,0.007-0.081-0.038l-0.083-0.066l0.066,0.104v0.097
		l-0.265-0.201v0.052l0.065,0.053l-0.016,0.097l-0.099-0.015l-0.05-0.067l-0.017,0.015l0.082,0.067l-0.034,0.119l-0.083-0.021
		l-0.067-0.083l-0.015,0.039l0.082,0.065l-0.015,0.099l-0.098-0.016l0.016,0.081l-0.12,0.046l0.066,0.104l0.015,0.111
		c-0.028,0.015-0.059,0.009-0.081-0.03l-0.07-0.065l-0.013,0.015l0.013,0.036l0.123,0.113l0.028,0.149
		c-0.028,0.021-0.059,0.015-0.081-0.029c-0.007-0.045-0.037-0.068-0.083-0.068V9.11c0.136,0.075,0.188,0.164,0.164,0.26
		l-0.081-0.015l-0.07-0.081L35.894,9.29l0.121,0.095l0.066,0.083l0.045,0.09l0.082,0.06l0.068,0.051l0.321,0.298V9.914h-0.041
		l-0.067-0.095l0.067-0.053l0.098,0.119l0.239,0.179l0.015-0.015l-0.083-0.066l0.017-0.098l0.262,0.179l0.021-0.03l-0.083-0.051
		l0.015-0.098l0.264,0.179l0.015-0.015c-0.075-0.045-0.104-0.089-0.081-0.135l0.104-0.015l0.112,0.083V9.899l0.104-0.015
		l0.096,0.083V9.914h-0.038l-0.058-0.095h0.096l0.112,0.066V9.789l0.104-0.023l0.082,0.089l0.015-0.036L37.9,9.765l0.016-0.096
		l0.102,0.015l0.084,0.065l-0.067-0.191l0.083,0.045c0.037,0.037,0.059,0.044,0.081,0.037l-0.066-0.082l0.015-0.104l0.082,0.051
		l0.089,0.029L38.251,9.34l0.082,0.044l0.082,0.039L38.363,9.34l-0.017-0.105h0.085V9.169l0.035-0.044l0.099,0.015l0.05,0.066
		l0.018-0.037l-0.084-0.044c-0.038-0.068,0-0.113,0.099-0.135l-0.068-0.083l-0.014-0.096l0.095,0.015l0.081,0.066V8.841
		C38.69,8.848,38.66,8.826,38.66,8.76l-0.095-0.084c0.02-0.081,0.05-0.089,0.095-0.035c0.046,0.044,0.074,0.06,0.081,0.035
		l-0.066-0.081l-0.027-0.083c0.005-0.035,0.043-0.044,0.094-0.035l0.083,0.081l0.025-0.014l-0.136-0.121
		c-0.048-0.051-0.062-0.111-0.039-0.164h0.089l-0.022-0.066c-0.117-0.074-0.176-0.158-0.176-0.247L38.66,7.96l0.081,0.069V7.975
		l-0.094-0.06l-0.099-0.089l-0.117-0.15c-0.068-0.051-0.092-0.111-0.085-0.162l0.12,0.051c0.022,0.044,0.037,0.053,0.06,0.03
		l-0.06-0.066l-0.052-0.083L38.198,7.23h-0.052v0.037c0.045,0,0.082,0.023,0.104,0.068l0.082,0.066v0.128l-0.611-0.508
		c-0.018,0.036,0,0.067,0.045,0.081l0.052,0.069l-0.052,0.044c-0.071-0.044-0.09-0.083-0.083-0.113l-0.11-0.021l-0.068-0.083
		l-0.081-0.081l-0.021,0.016l0.079,0.065l-0.013,0.104c-0.045,0.009-0.09-0.014-0.135-0.081l-0.081-0.053l-0.069-0.052
		c-0.006,0.021,0,0.045,0.023,0.052l0.066,0.029l-0.021,0.104l-0.278-0.185c-0.017,0.021-0.009,0.045,0.015,0.052l0.066,0.029
		l-0.015,0.104l-0.116-0.104c-0.04,0.023-0.066,0.015-0.1-0.029L36.76,6.917l0.015,0.052l0.067,0.029l-0.017,0.104
		c-0.081-0.021-0.119-0.059-0.119-0.104c-0.038,0.023-0.068,0.015-0.098-0.029l-0.066-0.052v0.036l0.083,0.045l-0.017,0.104
		l-0.147-0.081l-0.117-0.104c-0.026,0.021-0.01,0.045,0.034,0.052l0.031,0.083l-0.099,0.015l-0.117-0.068l-0.015,0.104l-0.098-0.021
		l-0.066-0.06l0.043,0.081l0.039,0.084l-0.12-0.016l-0.083-0.09c-0.022,0-0.029-0.008-0.029-0.015l0.015,0.104l-0.096,0.016
		l-0.12-0.084l0.013,0.016l-0.042,0.097c-0.04,0.022-0.068,0.015-0.105-0.029l-0.065-0.068l0.036,0.068l0.052,0.029L35.528,7.32
		l-0.244-0.202l-0.033,0.03l0.084,0.067L35.313,7.32l-0.1-0.024L35.147,7.23v0.066h0.038l0.017,0.135l-0.081-0.052l-0.086-0.083
		L34.954,7.23l-0.023,0.037l0.082,0.053l-0.028,0.111L34.738,7.23l-0.022,0.022l0.091,0.127L34.7,7.401l-0.097-0.066v0.066h0.053
		l0.03,0.069L34.67,7.529l-0.101-0.098c-0.034,0.023-0.063,0.015-0.1-0.03l-0.082-0.066l0.03,0.066l0.052,0.03l-0.017,0.098
		l-0.117-0.098c-0.03,0.023-0.059,0.015-0.082-0.03l-0.083-0.066c-0.009,0.044,0.007,0.075,0.054,0.081l0.029,0.069l-0.029,0.044
		c-0.069-0.023-0.099-0.053-0.084-0.098c-0.036,0.023-0.067,0.015-0.104-0.03l-0.081-0.066v0.066l0.081,0.03l-0.015,0.098
		L33.926,7.47l-0.121-0.069L33.656,7.23l-0.016,0.022l0.082,0.068l-0.015,0.111l-0.134-0.096l-0.081-0.053L33.427,7.23
		c-0.008,0.045,0.006,0.075,0.051,0.09l0.03,0.059l-0.046,0.052c-0.066-0.045-0.096-0.081-0.089-0.111
		c-0.111-0.039-0.194-0.105-0.245-0.202l-0.03,0.053l0.081,0.044L33.164,7.32l-0.089-0.024L32.993,7.23v0.037l0.105,0.083
		L33.179,7.431z"/>
	<path fill="#FFFFFF" d="M34.321,9.206V9.169h-0.03c-0.014,0.022-0.007,0.045,0.015,0.053L34.321,9.206z"/>
	<rect x="35.147" y="9.818" fill="#FFFFFF" width="0.038" height="0.036"/>
	<polygon fill="#FFFFFF" points="35.202,11.808 35.202,11.728 35.121,11.705 35.035,11.623 	"/>
	<path fill="#FFFFFF" d="M37.253,9.558l0.021,0.015c-0.083,0-0.109-0.03-0.09-0.084L37.253,9.558z"/>
	<rect x="35.366" y="10.033" fill="#FFFFFF" width="0.035" height="0.03"/>
	<path fill="#FFFFFF" d="M32.203,8.378c-0.016-0.067-0.039-0.09-0.067-0.067v0.031h0.015L32.203,8.378z"/>
	<path fill="#FFFFFF" d="M29.98,8.558l0.097,0.083l0.104,0.081l0.194,0.185V8.826c0.045-0.021,0.096-0.009,0.149,0.044l0.12,0.12
		l0.03-0.029l-0.082-0.054l0.014-0.096L30.86,8.99l0.029-0.015l-0.098-0.134l0.098-0.03l0.053,0.081h0.067l-0.037-0.066
		l-0.045-0.083l0.06-0.021l0.053,0.089h0.082V8.744l0.104-0.021l0.113,0.089V8.722h0.119l0.097,0.089V8.722
		c0.045-0.021,0.143,0.038,0.298,0.17V8.841h-0.015c-0.067,0-0.09-0.03-0.067-0.098l0.067-0.052l0.082,0.12L32.15,8.99l0.029-0.015
		c-0.082-0.044-0.119-0.089-0.097-0.134l0.068-0.03l0.067,0.081l0.202,0.129v-0.06c0.03-0.06,0.059-0.06,0.097,0
		c0.044,0.066,0.089,0.089,0.135,0.081l0.192,0.193l0.022-0.11l0.097,0.066l0.261,0.248l0.172,0.12
		c-0.022-0.024-0.029-0.044-0.022-0.069l0.067-0.036l0.067,0.104h0.066l0.066,0.111l0.8,0.747c0.112,0.164,0.196,0.26,0.246,0.283
		c-0.023,0.066-0.046,0.072-0.083,0.027l-0.134-0.082l0.337,0.336l0.206,0.299c-0.028,0.029-0.065,0.029-0.112,0l-0.081-0.066
		l0.216,0.261l0.196,0.23v0.023h0.082l0.088,0.059l-0.052-0.059c-0.043-0.016-0.059-0.046-0.036-0.084l0.103-0.021l0.096,0.066
		l-0.064-0.192l0.081,0.045c0.037,0.022,0.058,0.037,0.084,0.037v-0.066h-0.019c-0.043-0.025-0.06-0.054-0.043-0.084l0.098,0.016
		c0.044,0.043,0.075,0.06,0.096,0.053l-0.029-0.068l-0.052-0.066c0.004-0.068,0.029-0.083,0.066-0.039
		c0.044,0.054,0.083,0.075,0.118,0.068v-0.068c0-0.044,0.031-0.06,0.1-0.044l0.029,0.014l-0.015-0.014l-0.031-0.082
		c-0.043-0.014-0.06-0.043-0.052-0.088l0.083-0.031l0.015,0.066h0.081c-0.118-0.126-0.179-0.224-0.179-0.299l0.098,0.031
		l0.066,0.054l-0.014-0.054c-0.023,0-0.047-0.008-0.067-0.031l-0.201-0.201l-0.06-0.081c-0.063-0.022-0.086-0.053-0.067-0.099
		l-0.649-0.647c-0.047,0.006-0.075-0.015-0.096-0.081c-0.023-0.069-0.069-0.091-0.121-0.069l-0.245-0.284L34.453,9.34l-0.065-0.066
		l0.03,0.066l0.052,0.03l-0.017,0.098l-0.38-0.314l-0.185-0.193h-0.031V8.99c0.037,0.021,0.06,0.037,0.083,0.052l-0.015,0.112
		c-0.083-0.052-0.121-0.089-0.121-0.098l-0.082-0.051l-0.082-0.068l-0.179-0.193h-0.035v0.029l0.081,0.054l-0.015,0.111l-0.053-0.03
		l-0.343-0.281c-0.016,0.045,0,0.075,0.045,0.082l0.036,0.065c-0.007,0.045-0.036,0.045-0.081,0l-0.105-0.05l-0.128-0.106
		l-0.021,0.106l-0.096-0.046l-0.068-0.081l-0.066-0.067c-0.03,0.008-0.06-0.006-0.097-0.051l-0.067-0.069l0.029,0.069l0.053,0.035
		c0.022,0.054,0.022,0.09-0.015,0.099l-0.097-0.099l-0.12-0.065l-0.082-0.053v0.068l-0.038,0.051l-0.276-0.215l-0.037,0.097
		c-0.075,0-0.112-0.03-0.112-0.082l-0.067-0.015l-0.037,0.097l-0.097-0.082c-0.037,0-0.067-0.015-0.097-0.053l-0.082-0.066v0.066
		c0.052-0.006,0.089,0,0.097,0.038l-0.037,0.097l-0.097-0.097c-0.076-0.023-0.143-0.068-0.202-0.119l-0.016,0.119l-0.134-0.104
		c-0.029,0.016-0.06,0-0.082-0.044l-0.067-0.054v0.031l0.089,0.053l-0.022,0.119l-0.113-0.104c-0.022,0.016-0.051,0-0.081-0.044
		l-0.081-0.054l0.081,0.083l-0.022,0.119l-0.277-0.203l0.084,0.083L30.48,8.297l-0.149-0.083l-0.121-0.12L30.196,8.11l0.083,0.068
		l-0.015,0.119c-0.045,0.021-0.083,0.007-0.105-0.038l-0.082-0.066l0.037,0.066l0.067,0.038l-0.022,0.097
		c-0.045,0.023-0.074,0.009-0.097-0.03L29.98,8.312v0.031h0.015c0.067,0.021,0.09,0.066,0.067,0.119c0,0.045-0.03,0.06-0.097,0.051
		L29.98,8.558z"/>
	<polygon fill="#FFFFFF" points="32.856,8.609 32.864,8.616 32.865,8.611 	"/>
	<polygon fill="#FFFFFF" points="32.776,8.595 32.856,8.609 32.776,8.543 	"/>
</g>
</svg>
